<?xml version="1.0" encoding="utf-8"?>
<!-- Generator: Adobe Illustrator 16.0.0, SVG Export Plug-In . SVG Version: 6.00 Build 0)  -->
<!DOCTYPE svg PUBLIC "-//W3C//DTD SVG 1.1//EN" "http://www.w3.org/Graphics/SVG/1.1/DTD/svg11.dtd" [
	<!ENTITY ns_extend "http://ns.adobe.com/Extensibility/1.0/">
	<!ENTITY ns_ai "http://ns.adobe.com/AdobeIllustrator/10.0/">
	<!ENTITY ns_graphs "http://ns.adobe.com/Graphs/1.0/">
	<!ENTITY ns_vars "http://ns.adobe.com/Variables/1.0/">
	<!ENTITY ns_imrep "http://ns.adobe.com/ImageReplacement/1.0/">
	<!ENTITY ns_sfw "http://ns.adobe.com/SaveForWeb/1.0/">
	<!ENTITY ns_custom "http://ns.adobe.com/GenericCustomNamespace/1.0/">
	<!ENTITY ns_adobe_xpath "http://ns.adobe.com/XPath/1.0/">
]>
<svg version="1.1" id="Layer_1" xmlns:x="&ns_extend;" xmlns:i="&ns_ai;" xmlns:graph="&ns_graphs;"
	 xmlns="http://www.w3.org/2000/svg" xmlns:xlink="http://www.w3.org/1999/xlink" x="0px" y="0px" width="1920px" height="460px"
	 viewBox="0 310 1920 460" enable-background="new 0 310 1920 460" xml:space="preserve">
<metadata>
	<sfw  xmlns="&ns_sfw;">
		<slices></slices>
		<sliceSourceBounds  width="1788.001" height="459.469" x="66.777" y="310.5" bottomLeftOrigin="true"></sliceSourceBounds>
	</sfw>
</metadata>
<title>delisciosa logo</title>
<path fill="#FFFFFF" d="M541.912,473.959c-13.912-25.68-37.037-44.008-69.375-54.984c-16.569-4.882-33.768-7.303-51.04-7.185
	c-9.313,0.022-18.612,0.641-27.846,1.848c-3.823-1.876-8.034-2.829-12.292-2.782c-6.988,0.07-13.664,2.908-18.564,7.891
	c-18.441,4.171-36.576,9.597-54.278,16.238c-7.256,2.372-12.017,9.321-11.608,16.944c0.007,2.117,0.322,4.223,0.935,6.249
	c3.041,7.891,8.529,11.836,16.466,11.836c2.217-0.009,4.417-0.402,6.5-1.163c8.963-3.238,26.683-8.574,26.683-8.574
	s16.307-6.592,57.995-9.511h4.4c22.595,0,41.934,5.725,58.02,17.173c15.919,12.072,26.394,26.029,31.427,41.872
	c4.838,14.641,7.385,29.941,7.549,45.36c-0.189,26.667-5.823,53.014-16.558,77.426c-7.596,18.097-17.924,34.918-30.628,49.877
	c-17.332,19.339-36.049,33.182-56.148,41.529c-36.056,8.779-53.844,1.163-53.844,1.163s-4.561-2.396-6.842-3.946
	c-2.895-1.908-6.272-2.952-9.738-3.01c-6.029-0.08-11.661,3-14.847,8.118c-1.926,2.972-2.969,6.427-3.011,9.967
	c-0.132,6.107,2.95,11.84,8.119,15.098c16.711,11.104,36.313,17.067,56.376,17.149c6.542-0.021,13.069-0.639,19.499-1.848
	c26.743-4.79,52.188-16.702,76.331-35.736c25.505-20.595,46.077-46.638,60.207-76.218c14.748-30.407,22.593-54.535,23.536-72.386
	c0.942-17.85,1.406-28.492,1.391-31.928C561.068,523.75,554.592,497.431,541.912,473.959z"/>
<path fill="#FFFFFF" d="M622.6,752.623c-28.324,0-47.125-15.395-56.398-46.182c-3.587-12.754-5.33-25.956-5.178-39.203
	c0.024-9.789,0.787-19.563,2.28-29.236c3.406-20.282,9.13-36.141,17.173-47.573c13.138-18.701,29.609-28.06,49.42-28.074
	c2.403-0.005,4.805,0.155,7.186,0.479c15.48,2.191,29.479,10.383,38.975,22.806c6.885,8.64,10.646,19.354,10.674,30.399
	c-0.009,4.137-0.476,8.26-1.392,12.293c-4.789,15.203-13.76,25.961-26.911,32.271c-11.656,5.578-24.432,8.433-37.354,8.347
	l-5.086-0.228c1.84,18.396,6.477,31.616,13.911,39.659c2.629,3.195,6.535,5.065,10.674,5.107c2.889-0.063,5.73-0.731,8.347-1.962
	c2.536-1.226,5.304-1.901,8.119-1.982c6.771-0.174,13.018,3.638,15.964,9.737c1.199,2.469,1.838,5.17,1.87,7.913
	c0.196,6.799-3.757,13.035-9.989,15.759C648.963,749.399,634.869,752.623,622.6,752.623z M618.882,633.349
	c10.202,0,18.085-1.393,23.649-4.174c4.562-2.326,6.842-5.572,6.842-9.738c0.064-2.204-0.979-4.294-2.782-5.564
	c-1.946-1.428-4.313-2.166-6.728-2.098c-9.001,0-15.973,7.191-20.913,21.574H618.882L618.882,633.349z"/>
<path fill="#FFFFFF" d="M770.678,754.698c-19.34,0-34.886-6.575-46.639-19.728c-19.932-22.41-29.905-60.609-29.921-114.6
	c0-5.107,0.312-15.554,0.935-31.335c1.116-19.729,3.678-39.349,7.663-58.703c10.979-58.93,30.925-100.224,59.843-123.881
	c17.484-14.229,35.121-21.346,52.909-21.346c16.517-0.307,32.47,5.999,44.313,17.515c12.284,11.678,19.825,27.876,22.624,48.6
	c0.62,4.151,0.926,8.346,0.912,12.544c0,17.788-4.639,37.659-13.911,59.614c-13.524,28.629-31.388,54.998-52.955,78.178
	c-22.988,25.391-46.929,43.879-71.816,55.464c0.929,17.637,4.638,32.644,11.13,45.019c5.262,9.898,12.452,14.848,21.574,14.848
	c8.059,0,17.028-4.098,26.911-12.292c16.557-13.774,34.731-36.438,54.528-67.984l5.337-7.662c3.155-5.124,8.834-8.142,14.846-7.892
	c3.474,0.065,6.854,1.108,9.762,3.011c5.013,3.26,7.993,8.869,7.892,14.847c-0.037,3.516-1.178,6.931-3.262,9.762l-4.881,7.184
	c-22.987,36.033-45.08,62.488-66.273,79.364C805.958,748.206,788.785,754.698,770.678,754.698z M744.245,617.361
	c19.938-13.041,37.771-29.044,52.887-47.459c15.531-18.239,28.78-38.305,39.454-59.751c9.579-20.571,14.368-37.508,14.368-50.812
	c0-0.775-0.138-4.768-0.456-11.95c-0.319-7.184-4.266-13.022-11.837-17.515c-3.472-1.986-7.403-3.024-11.402-3.012
	c-24.129,0-44.653,22.661-61.575,67.984C753.068,534.538,745.857,575.747,744.245,617.361L744.245,617.361z"/>
<path fill="#FFFFFF" d="M879.734,765.371c-4.979-0.186-9.84-1.578-14.162-4.06c-5.108-2.714-8.803-7.687-11.129-14.96
	c-3.379-14.914-4.911-30.188-4.563-45.475c0-65.591,8.202-102.56,24.607-110.905c3.595-1.835,7.572-2.788,11.607-2.782
	c2.988,0.007,5.958,0.476,8.803,1.391c6.7,2.261,12.22,7.104,15.326,13.456c1.823,3.599,2.776,7.574,2.782,11.608
	c-0.04,2.984-0.509,5.95-1.392,8.803c-2.836,10.449-4.706,21.137-5.588,31.928c-1.933,16.656-2.938,33.406-3.011,50.174
	c-0.278,8.869,0.486,17.74,2.28,26.433c2.257,7.425,1.201,15.462-2.896,22.053c-2.722,5.108-7.633,8.818-14.731,11.129
	C885.098,764.945,882.425,765.353,879.734,765.371z M895.037,571.887c-5.881,0.049-11.529-2.297-15.646-6.5
	c-4.284-4.029-6.684-9.672-6.612-15.555c-0.1-5.854,2.308-11.472,6.612-15.438c8.714-8.484,22.601-8.484,31.313,0
	c4.287,3.98,6.689,9.59,6.613,15.438c0.06,5.881-2.338,11.519-6.613,15.555C906.583,569.593,900.927,571.939,895.037,571.887z"/>
<path fill="#FFFFFF" d="M986.694,756.09c-10.108-0.041-20.171-1.366-29.944-3.946c-4.289-1.957-7.621-5.544-9.259-9.966
	c-0.77-1.922-1.164-3.975-1.163-6.043c0.027-2.638,0.578-5.241,1.619-7.663c2.641-6.452,8.994-10.602,15.964-10.423
	c2.462-0.004,4.901,0.469,7.184,1.392c2.293,0.914,4.738,1.386,7.207,1.392c5.564,0,12.634-2.242,21.209-6.729
	c9.054-4.788,17.454-10.721,24.995-17.651c8.043-7.374,12.301-12.907,12.771-16.603c-0.472-1.064-11.222-2.691-32.247-4.881
	c-28.889-2.919-46.912-5.777-54.073-8.574c-8.861-3.546-16.972-8.738-23.9-15.303c-6.998-6.354-10.962-15.385-10.899-24.836
	c0-8.666,4.332-18.178,12.999-28.53c10.915-11.746,24.896-20.207,40.365-24.425c15.135-4.522,30.844-6.827,46.639-6.842
	c1.072,0,5.998,0,14.731,0.342c9.68,0.498,19.138,3.072,27.732,7.549c5.876,2.947,9.563,8.979,9.51,15.554
	c-0.035,2.908-0.754,5.769-2.099,8.348c-2.674,6.138-8.841,10.004-15.53,9.737c-2.914-0.022-5.782-0.733-8.37-2.075
	c-5.681-2.772-11.922-4.209-18.244-4.195c-4.012,0.189-8.005,0.662-11.949,1.414c-7.096,1.444-13.909,4.024-20.185,7.64
	c-6.62,3.338-12.757,7.558-18.244,12.543c-3.397,3.239-5.107,5.725-5.107,7.412c0,2.326,3.868,3.489,11.606,3.489
	c7.989-0.141,15.967-0.682,23.9-1.619c14.688-1.262,25.277-1.885,31.77-1.87c6.61-0.052,13.213,0.49,19.728,1.619
	c24.904,6.082,37.354,19.621,37.354,40.617c0,10.064-3.404,20.662-10.217,31.792c-12.163,18.866-29.792,33.099-52.887,42.691
	C1016.075,753.219,1001.455,756.16,986.694,756.09z"/>
<path fill="#FFFFFF" d="M1159.996,762.11l-4.858-0.205c-20.723-2.798-35.112-12.239-43.171-28.325
	c-6.787-13.608-10.205-28.648-9.967-43.854c0.001-4.014,0.578-12.438,1.732-25.27c1.156-12.833,6.729-28.613,16.718-47.346
	c9.974-18.7,22.774-32.08,38.405-40.138c6.563-3.499,13.886-5.331,21.322-5.337c10.905,0.34,21.54,3.48,30.879,9.122
	c10.823,6.244,18.991,16.229,22.967,28.073c1.522,4.322,2.295,8.873,2.279,13.456c-0.191,8.812-2.583,17.435-6.956,25.086
	c-2.88,5.661-8.723,9.197-15.073,9.122c-3.215-0.021-6.364-0.902-9.122-2.554c-5.769-2.895-9.328-8.876-9.122-15.326
	c0.022-3.077,0.808-6.101,2.279-8.803c1.9-2.879,3.168-6.128,3.719-9.533c0.006-0.392-0.071-0.78-0.229-1.14
	c-0.746-1.796-2.479-2.984-4.424-3.033c-2.783,0-7.108,2.706-12.977,8.119c-5.869,5.412-12.142,14.283-18.815,26.614
	c-8.362,14.839-12.543,28.218-12.543,40.138c-0.379,9.688,4.86,18.729,13.455,23.217c2.876,1.254,5.985,1.884,9.122,1.847
	c6.341,0,14.497-2.934,24.471-8.803c10.619-6.411,20.207-14.393,28.439-23.673c3.411-3.822,8.333-5.949,13.454-5.815
	c9.712,0.105,17.497,8.063,17.393,17.773c-0.047,4.345-1.701,8.518-4.643,11.715c-14.117,16.02-30.534,29.854-48.715,41.051
	C1190.357,757.503,1175.018,762.11,1159.996,762.11z"/>
<path fill="#FFFFFF" d="M1296.42,765.371c-4.973-0.186-9.825-1.578-14.14-4.06c-5.108-2.714-8.825-7.687-11.151-14.96
	c-3.366-14.916-4.897-30.188-4.562-45.475c0-65.591,8.202-102.56,24.606-110.905c3.586-1.834,7.559-2.788,11.585-2.782
	c2.996,0.005,5.975,0.474,8.826,1.391c6.694,2.261,12.205,7.105,15.303,13.456c1.835,3.595,2.788,7.573,2.782,11.608
	c-0.029,2.986-0.498,5.952-1.391,8.803c-2.826,10.45-4.688,21.138-5.565,31.928c-1.932,16.656-2.937,33.406-3.01,50.174
	c-0.279,8.869,0.486,17.74,2.28,26.433c0.735,2.644,1.12,5.374,1.141,8.118c-0.199,4.905-1.593,9.688-4.06,13.935
	c-2.691,5.108-7.617,8.826-14.732,11.129C1301.77,764.947,1299.104,765.354,1296.42,765.371z M1311.746,571.887
	c-5.889,0.048-11.543-2.298-15.668-6.5c-4.276-4.036-6.673-9.674-6.613-15.555c-0.076-5.85,2.326-11.458,6.613-15.438
	c8.721-8.487,22.614-8.487,31.335,0c4.287,3.98,6.688,9.59,6.614,15.438c0.059,5.881-2.338,11.519-6.614,15.555
	C1323.287,569.586,1317.633,571.932,1311.746,571.887z"/>
<path fill="#FFFFFF" d="M1411.271,763.752c-6.18-0.332-12.332-1.033-18.429-2.099c-9.213-1.384-19.854-7.952-31.928-19.704
	c-12.072-11.753-19.849-26.957-23.33-45.611c-1.928-12.427-1.456-25.107,1.392-37.355c4.026-16.567,11.981-31.923,23.192-44.769
	c11.313-12.999,23.924-21.665,37.835-25.998c4.063-1.216,8.28-1.838,12.521-1.849c9.273,0,19.156,4.061,29.646,12.18
	c10.491,8.119,18.809,26.257,24.95,54.414c1.994,9.927,3.003,20.024,3.01,30.148c0.004,6.29-0.384,12.574-1.163,18.815
	c-4.166,24.128-12.526,40.98-25.086,50.561C1434.572,759.772,1423.093,763.737,1411.271,763.752z M1392.25,715.723
	c5.224-0.349,10.192-2.38,14.163-5.792c5.127-3.918,8.601-9.613,9.737-15.964c0.468-3.623,0.703-7.271,0.707-10.926
	c-0.026-6.547-0.729-13.072-2.099-19.476c-4.028-18.884-10.293-28.317-18.792-28.302c-3.404,0-7.274,2.242-11.607,6.728
	c-4.333,4.562-7.959,12.841-10.901,25.086c-1.07,4.809-1.613,9.718-1.619,14.643c0.001,3.099,0.229,6.192,0.686,9.259
	c2.646,13.684,7.13,21.65,13.454,23.9C1388.016,715.472,1390.129,715.756,1392.25,715.723z"/>
<path fill="#FFFFFF" d="M1544.229,756.09c-10.102-0.041-20.154-1.367-29.922-3.946c-4.296-1.955-7.637-5.541-9.281-9.966
	c-0.758-1.925-1.152-3.976-1.163-6.043c0.036-2.639,0.596-5.242,1.643-7.663c2.642-6.452,8.994-10.602,15.964-10.423
	c2.463-0.004,4.901,0.469,7.186,1.392c2.285,0.912,4.723,1.384,7.184,1.392c5.58,0,12.657-2.242,21.232-6.729
	c9.045-4.79,17.438-10.723,24.973-17.651c8.042-7.374,12.292-12.907,12.748-16.603c-0.456-1.064-11.205-2.691-32.248-4.881
	c-28.887-2.919-46.904-5.777-54.049-8.574c-8.85-3.574-16.938-8.799-23.833-15.395c-6.998-6.354-10.962-15.385-10.901-24.836
	c0-8.667,4.333-18.177,13-28.529c10.907-11.702,24.863-20.13,40.299-24.334c15.134-4.522,30.843-6.827,46.638-6.842
	c1.079,0,5.989,0.113,14.731,0.342c9.68,0.498,19.137,3.071,27.732,7.549c5.863,2.958,9.54,8.986,9.486,15.554
	c-0.025,2.906-0.736,5.768-2.074,8.347c-2.684,6.142-8.858,10.009-15.555,9.738c-2.906-0.025-5.767-0.736-8.347-2.075
	c-5.682-2.772-11.923-4.208-18.245-4.195c-4.012,0.191-8.005,0.665-11.949,1.414c-7.092,1.452-13.906,4.031-20.185,7.64
	c-6.618,3.341-12.755,7.561-18.243,12.543c-3.398,3.239-5.108,5.725-5.108,7.412c0,2.28,3.854,3.489,11.608,3.489
	c7.979-0.142,15.949-0.682,23.877-1.619c14.717-1.263,25.313-1.885,31.791-1.87c6.61-0.052,13.213,0.49,19.728,1.619
	c24.903,6.082,37.356,19.621,37.356,40.617c0,10.064-3.406,20.662-10.218,31.792c-12.164,18.866-29.793,33.099-52.887,42.691
	C1573.609,753.219,1558.989,756.16,1544.229,756.09z"/>
<path fill="#FFFFFF" d="M1829.143,770c-2.922-0.018-5.822-0.486-8.599-1.392c-23.657-8.803-37.729-36.329-42.214-82.579
	c-7.602,13.684-13.402,23.43-17.4,29.236c-15.007,21.65-31.168,32.476-48.486,32.476c-17.332-1.23-30.254-7.807-38.77-19.727
	c-9.122-12.361-13.684-27.755-13.684-46.183c0.115-16.528,3.713-32.848,10.56-47.893c6.984-15.857,18.177-29.502,32.361-39.454
	c12.694-8.803,27.854-13.212,45.475-13.228c12.392,0,22.686,2.631,30.88,7.891c4.469-9.273,12.125-14.451,22.965-15.53h0.685
	c6.833-0.113,13.444,2.419,18.451,7.069c5.174,4.711,8.301,11.26,8.711,18.245l-0.25,11.836c-0.775,16.39-1.156,31.313-1.142,44.769
	c0,38.526,2.782,59.333,8.348,62.419c10.798,3.737,18.095,13.844,18.245,25.27c-0.021,2.753-0.404,5.49-1.142,8.143
	c-2.164,6.731-6.926,12.322-13.228,15.53C1837.295,768.868,1833.257,769.932,1829.143,770z M1722.639,702.975
	c4.334,0,11.685-9.753,22.053-29.26c11.587-22.716,19.089-37.789,22.511-45.225c-0.67-0.398-1.297-0.865-1.871-1.392
	c-1.928-1.738-4.369-2.803-6.955-3.033c-6.188,0-12.452,4.333-18.792,12.999c-5.802,7.86-10.563,16.438-14.163,25.521
	c-5.093,12.391-7.639,22.6-7.639,30.628c0,4.947,1.299,8.118,3.944,9.51L1722.639,702.975z"/>
<path fill="#FFFFFF" d="M229.906,504.701l30.081,5.085l-7.07,30.834l-29.83-5.906L229.906,504.701z"/>
<path fill="#FFFFFF" d="M229.769,497.197c2.281-9.35,4.288-18.449,6.249-26.934l31.062,6.181
	c-2.281,8.599-4.561,17.857-6.591,26.341L229.769,497.197z"/>
<path fill="#FFFFFF" d="M252.917,547.348c-2.28,9.51-4.561,18.813-6.568,27.73l-30.811-6.135c2.28-9.35,4.561-18.632,6.568-27.366
	L252.917,547.348z"/>
<path fill="#FFFFFF" d="M286.806,548.009L259.12,542.9c2.523-10.643,4.994-21.02,7.412-31.13l27.367,5.474L286.806,548.009z"/>
<path fill="#FFFFFF" d="M223.155,501.508l-6.979,31.653l-25.36-4.856c2.463-10.833,4.835-21.301,7.207-31.654L223.155,501.508z"/>
<path fill="#FFFFFF" d="M213.873,575.33l31.29,5.998c-1.984,8.461-3.945,16.877-5.952,25.451c-7.754-1.573-16.785-3.146-25.634-5.45
	c-2.163-1.126-3.587-3.292-3.763-5.725C210.657,588.625,212.505,581.762,213.873,575.33z"/>
<path fill="#FFFFFF" d="M266.828,505.316c2.281-9.624,4.333-18.746,6.363-27.504l27.572,5.474
	c-2.121,9.122-4.288,18.358-6.34,27.186L266.828,505.316z"/>
<path fill="#FFFFFF" d="M252.483,576.722l6.614-27.07l26.957,5.655c-2.144,8.644-4.402,17.834-6.545,26.614L252.483,576.722z"/>
<path fill="#FFFFFF" d="M215.196,539.502c-2.281,9.306-4.561,18.382-6.568,27.161l-24.813-5.086
	c2.281-8.733,4.561-17.971,6.682-26.909L215.196,539.502z"/>
<path fill="#FFFFFF" d="M273.1,447.504l-5.838,21.117l-30.4-5.998c1.802-7.069,3.672-14.526,5.291-20.98L273.1,447.504z"/>
<path fill="#FFFFFF" d="M253.145,583.632l26.432,4.812c-2.053,8.6-4.06,16.899-5.907,24.653l-26.592-5.131L253.145,583.632z"/>
<path fill="#FFFFFF" d="M197.544,490.036c2.144-9.305,4.288-18.632,6.317-27.365l25.474,5.063
	c-2.281,9.122-4.561,18.382-6.842,27.504L197.544,490.036z"/>
<path fill="#FFFFFF" d="M301.311,519.068l19.887,4.287c-2.28,10.149-4.721,20.525-7.138,31.131l-19.75-3.991
	C296.681,539.853,299.015,529.377,301.311,519.068z"/>
<path fill="#FFFFFF" d="M170.519,490.606l20.024,4.288c-2.463,10.239-4.949,20.729-7.526,31.472l-19.567-4.562
	C165.775,511.725,168.125,501.143,170.519,490.606z"/>
<path fill="#FFFFFF" d="M314.424,560.415c-2.28,9.763-4.265,18.86-6.317,27.869l-21.62-4.697c2.167-8.871,4.401-18.107,6.591-27.186
	L314.424,560.415z"/>
<path fill="#FFFFFF" d="M197.863,460.571c-2.28,9.396-4.562,18.496-6.614,27.025l-20.936-4.288l6.842-26.888L197.863,460.571z"/>
<path fill="#FFFFFF" d="M204.386,455.646c1.825-7.8,3.581-15.28,5.268-22.532l25.771,5.27c-1.984,7.457-4.037,15.211-5.884,22.213
	L204.386,455.646z"/>
<path fill="#FFFFFF" d="M280.192,615.811c2.121-8.62,4.151-16.876,6.226-25.383l20.525,4.562
	C305.598,613.484,297.092,620.44,280.192,615.811z"/>
<path fill="#FFFFFF" d="M273.966,470.036l5.565-23.604l24.63,29.466L273.966,470.036z"/>
<path fill="#FFFFFF" d="M307.673,483.195c6.568,11.402,13.182,21.393,16.101,33.639l-22.806-4.973
	C303.066,503.15,305.21,493.845,307.673,483.195z"/>
<path fill="#FFFFFF" d="M176.38,560.027l-16.534-31.769l23.33,4.79C181.078,541.372,178.866,550.152,176.38,560.027z"/>
<path fill="#FFFFFF" d="M314.447,590.063c2.121-9.281,4.242-18.563,6.34-27.663l12.133,2.28c-2.554,7.298-5.04,14.3-7.458,21.301
	C323.409,591.888,319.738,593.164,314.447,590.063z"/>
<path fill="#FFFFFF" d="M176.813,449.282l26.706-17.378l-5.998,21.21L176.813,449.282z"/>
<path fill="#FFFFFF" d="M182.082,568.215l26.546,4.767c-1.779,6.842-3.467,13.182-5.382,20.389L182.082,568.215z"/>
<path fill="#FFFFFF" d="M328.563,525.021c1.733,11.95,3.261,22.51,4.858,33.411l-12.634-2.167
	C323.272,546.253,325.69,536.538,328.563,525.021z"/>
<path fill="#FFFFFF" d="M162.605,482.921l-5.952-1.301c1.186-11.175,7.503-24.241,12.566-26.705
	C167.121,463.834,164.955,473.069,162.605,482.921z"/>
<path fill="#FFFFFF" d="M243.43,620.053c0.547-2.28,0.935-3.9,1.026-4.356l28.827,5.497
	C263.59,624.75,254.011,623.04,243.43,620.053z"/>
<path fill="#FFFFFF" d="M156.311,516.72c-0.684-10.582-1.3-19.91-1.984-30.378l8.644,2.577
	C160.895,497.54,158.797,506.343,156.311,516.72z"/>
<path fill="#FFFFFF" d="M241.742,433.159l2.509-6.386l23.764,10.901l-0.411,0.865L241.742,433.159z"/>
<path fill="#FFFFFF" d="M212.094,425.063h26.386l-1.14,7.024l-25.246-5.132V425.063z"/>
<path fill="#FFFFFF" d="M224.409,609.79l15.85,2.896c-0.616,1.938-1.095,3.396-1.779,5.587l-14.413-7.822L224.409,609.79z"/>
<path fill="#FFFFFF" d="M255.539,326.998c-30.217,20.775-46.979,49.898-54.734,84.951c-0.576,2.337-1.947,4.401-3.877,5.839
	c-10.536,7.206-21.255,14.116-31.928,21.004c-1.445,1.104-3.25,1.633-5.063,1.482c-22.236-6.842-43.035-0.616-63.537,7.115
	c-9.51,3.604-18.678,8.142-29.123,12.771c15.28-27.822,36.854-44.312,69.216-46.342c-17.538-21.277-40.708-32.088-64.039-42.875
	c30.126-3.078,58.588,0,82.968,21.05c-8.119-30.081-4.356-61.575,9.487-81.462c-0.707,26.182,5.45,49.283,18.245,66.958
	C198.525,347.91,221.011,328.571,255.539,326.998z"/>
<path fill="#FFFFFF" d="M195.081,588.58c0,0,29.807-1.914,43.582-13.203c13.774-11.289,55.646-49.513,93.002-29.01l10.787,12.134
	l-7.503,9.326l-38.474,32.18l-95.784,23.468L195.081,588.58z"/>
<path fill="#FFFFFF" d="M192.664,662.426c-2.737-0.251-5.451-0.524-8.187-0.707c-5.997-0.035-11.974-0.692-17.834-1.961
	c-7.813-1.94-14.508-6.958-18.564-13.912c-2.255-3.297-3.993-6.919-5.154-10.741c-1.825-8.142,0.958-14.893,6.34-20.776
	c4.561-4.947,10.559-7.503,16.717-9.737c8.642-2.819,17.542-4.774,26.569-5.838c8.347-1.301,16.694-2.669,24.972-4.38
	c7.134-1.426,13.868-4.398,19.727-8.712c5.04-3.717,9.989-7.594,14.732-11.698c5.039-4.424,10.572-8.249,16.489-11.403
	c9.466-4.958,19.708-8.267,30.286-9.783c5.866-0.724,11.806-0.577,17.629,0.435c7.743,1.181,15.306,3.333,22.509,6.407
	c8.068,3.304,14.857,9.116,19.362,16.58c5.511,8.423,8.993,18.009,10.171,28.005c0.589,8.627-0.814,17.273-4.104,25.271
	c-4.673,12.293-12.063,23.371-21.62,32.407c-1.346,1.254-2.828,2.395-4.196,3.626c-0.382,0.304-0.627,0.746-0.684,1.23
	c0.934,9.611-0.588,19.304-4.424,28.165c-4.371,11.11-11.173,21.101-19.909,29.237c-5.131,4.454-10.773,8.282-16.808,11.401
	c-6.096,3.42-12.582,6.093-19.316,7.961c-13.897,4.058-28.572,4.676-42.761,1.802c-7.409-1.761-14.669-4.103-21.711-7.002
	c-6.933-2.795-14.059-5.082-21.324-6.842c-8.707-1.842-17.607-2.606-26.5-2.28c-5.582,0.364-11.174-0.549-16.352-2.669
	c-5.899-2.536-10.736-7.042-13.684-12.748c-1.393-2.355-2.612-4.812-3.649-7.344c-1.517-5.054-1.446-10.451,0.206-15.462
	c1.577-5.467,5.294-10.063,10.308-12.75c4.401-2.436,9.157-4.166,14.094-5.131c10.392-2.025,20.663-4.631,30.765-7.8
	c2.007-0.684,3.968-1.481,5.952-2.28L192.664,662.426z M261.241,632.094v0.251c0.221,0.073,0.452,0.11,0.684,0.114
	c5.065,0.009,10.063,1.161,14.619,3.375c10.266,4.453,18.014,13.247,21.141,23.991c1.766,4.811,0.663,10.204-2.851,13.936
	c-1.464,1.701-3.117,3.23-4.926,4.561c-4.31,3.033-8.689,5.998-13.205,8.689c-5.68,3.337-11.901,5.652-18.381,6.842
	c-5.137,1.194-10.453,1.403-15.667,0.615c-7.354-1.251-14.026-5.064-18.838-10.765c-3.085-3.504-4.411-8.22-3.604-12.816
	c1.158-6.132,3.48-11.984,6.842-17.241c2.77-4.391,6.298-8.252,10.422-11.402c0.479-0.388,0.981-0.729,1.482-1.095
	c-3.353,1.527-6.591,3.215-9.761,5.018c-4.265,2.418-8.438,4.994-12.726,7.344c-6.112,3.375-12.156,6.842-18.473,9.829
	c-10.427,4.646-21.343,8.104-32.544,10.309c-7.343,1.619-14.778,2.736-21.506,6.431c-3.214,1.561-5.938,3.975-7.868,6.979
	c-2.967,5.068-3.958,11.054-2.783,16.808c0.814,4.931,3.862,9.206,8.256,11.585c2.738,1.491,5.824,2.225,8.94,2.121
	c5.724,0,11.403-0.502,17.218-0.547c15.687,0.26,31.335,1.654,46.82,4.173c6.842,0.958,13.684,1.87,20.64,2.623
	c6.718,0.723,13.487,0.853,20.229,0.389c11.057-0.729,21.8-3.982,31.404-9.511c6.391-3.602,12.384-7.867,17.88-12.727
	c7.064-6.093,13.128-13.258,17.971-21.231c3.375-5.839,6.5-11.769,7.07-18.654c0.554-5.462-1.087-10.918-4.561-15.166
	c-3.986-4.696-9.038-8.371-14.732-10.72c-10.534-4.623-21.956-6.873-33.457-6.591c-4.805,0.139-9.579,0.819-14.23,2.029
	L261.241,632.094z M290.888,567.805c0.798-0.753,2.076-1.779,3.125-2.965c1.335-1.074,1.546-3.026,0.473-4.361
	c-0.507-0.631-1.242-1.038-2.046-1.135c-2.815-0.745-5.78-0.706-8.575,0.112c-4.613,0.845-8.891,2.979-12.338,6.158
	c-1.163,1.163-2.281,2.44-1.642,4.266c0.638,1.823,2.44,2.098,4.105,2.395h0.296c5.907,0.524,11.129-1.481,16.625-4.47H290.888z
	 M298.893,559.115c-0.507,0.605-0.894,1.303-1.14,2.053c0,0.389,0.752,1.277,1.323,1.438c3.546,1.087,7.397,0.445,10.399-1.733
	c1.642-1.186,1.346-2.622-0.57-3.237c-3.395-0.844-6.985-0.312-9.989,1.481L298.893,559.115L298.893,559.115z"/>
<path fill="#FFFFFF" d="M261.241,632.094l1.414-0.456c4.652-1.21,9.426-1.892,14.23-2.029c11.5-0.282,22.922,1.968,33.456,6.591
	c5.695,2.349,10.747,6.022,14.732,10.72c3.475,4.249,5.115,9.704,4.562,15.166c-0.57,6.842-3.695,12.815-7.07,18.654
	c-4.842,7.975-10.906,15.14-17.971,21.231c-5.496,4.859-11.489,9.125-17.88,12.727c-9.576,5.486-20.277,8.717-31.29,9.441
	c-6.741,0.464-13.51,0.334-20.229-0.388c-6.842-0.753-13.683-1.665-20.639-2.623c-15.494-2.513-31.149-3.899-46.843-4.15
	c-5.747,0-11.403,0.502-17.218,0.547c-3.116,0.104-6.202-0.63-8.94-2.12c-4.394-2.379-7.441-6.656-8.256-11.586
	c-1.175-5.754-0.184-11.739,2.783-16.808c1.931-3.006,4.654-5.42,7.868-6.979c6.728-3.693,14.163-4.813,21.506-6.432
	c11.209-2.149,22.142-5.554,32.59-10.148c6.317-2.965,12.361-6.453,18.473-9.828c4.288-2.281,8.461-4.927,12.726-7.345
	c3.17-1.802,6.409-3.489,9.761-5.018c-0.501,0.365-1.003,0.707-1.482,1.095c-4.125,3.151-7.654,7.013-10.422,11.403
	c-3.362,5.257-5.685,11.108-6.842,17.241c-0.808,4.598,0.518,9.313,3.604,12.815c4.811,5.7,11.484,9.514,18.837,10.765
	c5.214,0.788,10.531,0.579,15.667-0.614c6.48-1.189,12.701-3.505,18.382-6.842c4.561-2.691,8.894-5.656,13.204-8.689
	c1.81-1.329,3.462-2.859,4.926-4.562c3.513-3.729,4.617-9.125,2.851-13.935c-3.126-10.745-10.875-19.538-21.141-23.992
	c-4.556-2.213-9.553-3.366-14.618-3.375c-0.232-0.003-0.463-0.042-0.685-0.114L261.241,632.094z"/>
<path fill="#FFFFFF" d="M290.911,567.805c-5.496,2.986-10.719,4.994-16.603,4.561h-0.296c-1.665-0.296-3.398-0.615-4.105-2.395
	c-0.707-1.778,0.479-3.103,1.642-4.266c3.447-3.179,7.726-5.313,12.338-6.156c2.795-0.819,5.76-0.859,8.575-0.114
	c1.701,0.205,2.914,1.749,2.709,3.45c-0.097,0.804-0.504,1.538-1.135,2.046C292.986,566.025,291.709,567.052,290.911,567.805z"/>
<path fill="#FFFFFF" d="M298.916,559.115c3.01-1.799,6.61-2.332,10.012-1.481c1.916,0.616,2.281,2.053,0.57,3.237
	c-3.002,2.18-6.853,2.82-10.399,1.733c-0.57-0.159-1.392-1.049-1.323-1.438C298.021,560.418,298.409,559.721,298.916,559.115z"/>
<path fill="#FFFFFF" d="M403.367,644c10.285-41.052-18.587-77.54-57.768-79.82c6.271-22.988,34.208-43.879,64.176-38.953
	c0.363,4.196,0.729,8.484,1.14,13.113l6.181,0.479c0-4.128-0.183-7.981-0.272-11.882c22.167,4.082,46.091,28.462,44.517,60.253
	C459.794,618.35,434.552,643.084,403.367,644z M401.679,535.261l-4.287-2.28c0,1.824-0.434,3.99,0.343,5.428
	c5.839,10.627,25.794,13.045,33.685,4.104c0.855-1.483,1.42-3.117,1.665-4.813c-1.576,0.352-3.075,0.984-4.425,1.87
	c-6.955,6.955-22.578,4.994-26.979-4.265L401.679,535.261L401.679,535.261z"/>
<path fill="#FFFFFF" d="M388.543,493.161l19.59,22.577c-20.799,3.672-41.483-14.801-44.448-38.152
	c23.171-5.84,42.943,11.401,46.387,32.246C400.128,498.954,394.541,494.734,388.543,493.161z"/>
<path fill="#FFFFFF" d="M431.486,497.403c-10.855,6.34-14.346,16.671-15.029,28.188l-6.066-1.368
	c0.11-11.511,3.66-22.727,10.194-32.202c0.784-0.885,1.948-1.336,3.124-1.209C427.364,491.306,430.399,493.878,431.486,497.403z"/>
<circle fill="#FFFFFF" cx="344.003" cy="626.438" r="61.804"/>
<path fill="#FFFFFF" d="M389.523,595.834c16.958,25.614,9.939,60.128-15.676,77.086c-25.615,16.957-60.128,9.938-77.085-15.677
	c-16.958-25.616-9.94-60.128,15.676-77.086c0.077-0.051,0.153-0.102,0.23-0.15C338.267,563.181,372.655,570.263,389.523,595.834z
	 M385.418,599.094c-15.125-23.368-46.329-30.051-69.697-14.928c-23.369,15.125-30.052,46.329-14.927,69.697
	c15.099,23.328,46.23,30.035,69.595,14.993c23.367-14.894,30.236-45.909,15.343-69.276
	C385.629,599.418,385.524,599.256,385.418,599.094z"/>
<path fill="#FFFFFF" d="M347.355,618.639l-5.2-1.505c-1.187-10.219-2.486-20.344-3.398-30.516c0.242-1.67,1.303-3.107,2.828-3.831
	c7.065-1.803,14.567-0.255,20.343,4.196c1.533,0.871,2.07,2.82,1.199,4.354c-0.102,0.179-0.221,0.348-0.355,0.504
	C357.573,600.668,352.578,609.493,347.355,618.639z"/>
<path fill="#FFFFFF" d="M350.115,630.908l1.345-5.245c10.263-1.209,20.525-2.509,30.743-3.467c1.559,0.203,2.902,1.194,3.558,2.623
	c1.928,7.106,0.408,14.706-4.104,20.524c-1.391,1.938-2.736,2.008-4.766,0.82C368.086,641.103,359.215,636.107,350.115,630.908z"/>
<path fill="#FFFFFF" d="M340.4,617.293l-4.561,3.011l-25.816-20.525c0.433-7.139,12.885-15.029,19.02-14.778
	c1.291,0.134,2.433,0.893,3.056,2.029C334.972,597.155,337.663,607.281,340.4,617.293z"/>
<path fill="#FFFFFF" d="M349.522,631.866l26.067,20.686c-0.365,7.139-13.091,15.075-19.02,14.777
	c-1.393-0.243-2.578-1.155-3.17-2.439c-2.668-9.122-4.881-18.244-7.64-27.367C344.642,633.805,347.355,633.463,349.522,631.866z"/>
<path fill="#FFFFFF" d="M333.786,628.765l2.919,4.561c-6.477,8.188-12.908,16.443-19.544,24.494
	c-1.145,0.895-2.667,1.144-4.037,0.661c-6.602-3.694-11.004-10.358-11.813-17.88c0.128-1.454,0.988-2.743,2.281-3.421
	C313.58,634.146,323.683,631.5,333.786,628.765z"/>
<path fill="#FFFFFF" d="M343.57,633.873c1.346,11.745,2.6,22.167,3.649,32.591c-0.088,1.173-0.732,2.231-1.733,2.851
	c-5.587,2.668-17.538,0.433-21.825-4.174c-0.866-1.166-1.105-2.685-0.638-4.061c4.561-8.323,9.122-16.625,14.231-24.652
	C338.142,634.99,341.038,634.875,343.57,633.873z"/>
<path fill="#FFFFFF" d="M351.21,624.043l-2.988-4.562c6.5-8.232,13.022-16.58,19.727-24.768c1.009-0.655,2.268-0.8,3.398-0.388
	c5.519,2.099,12.292,12.109,12.11,18.107c-0.181,1.43-1.026,2.688-2.28,3.397C371.302,618.729,361.313,621.33,351.21,624.043z"/>
<path fill="#FFFFFF" d="M334.539,621.877c-0.342,1.869-0.616,3.442-0.958,5.313c-10.354,1.209-20.708,2.509-31.107,3.513
	c-1.4-0.168-2.624-1.022-3.261-2.28c-2.165-7.251-0.649-15.104,4.06-21.026c1.391-1.894,2.851-1.824,4.857-0.639
	C316.796,611.797,325.553,616.632,334.539,621.877z"/>
<path fill="#FFFFFF" d="M549.917,441.62c23.103-14.626,47.419-27.237,72.683-37.697c12.726-4.949,25.314-10.377,38.291-14.664
	l19.386-6.843l19.59-6.044c52.502-15.464,106-27.319,160.12-35.484c54.025-8.575,108.556-13.685,163.151-16.854
	c27.367-1.521,54.688-2.395,81.964-2.623c27.367-0.547,54.734,0,82.103,0.594c109.263,3.899,218.687,15.781,325.029,42.623
	c53,13.685,105.499,30.742,154.53,55.829c24.244,12.841,47.894,27.505,67.984,46.479c10.149,9.393,18.803,20.283,25.656,32.293
	c6.848,11.99,10.345,25.602,10.127,39.408c-0.703-13.566-5.035-26.696-12.544-38.019c-7.339-11.271-16.343-21.368-26.706-29.942
	c-20.525-17.471-44.313-30.629-68.69-41.963c-24.549-11.231-49.812-20.831-75.624-28.735c-25.847-8.059-51.943-15.09-78.293-21.096
	c-26.409-5.885-53.001-10.925-79.684-15.485c-26.684-4.561-53.525-8.073-80.459-11.106c-53.791-6.218-107.812-10.088-162.059-11.606
	c-54.164-1.802-108.418-1.301-162.561,0.979c-54.141,2.28-108.214,6.843-161.921,13.685c-53.763,6.785-107.07,16.775-159.642,29.921
	l-19.705,4.994l-19.521,5.725c-13.091,3.58-25.793,8.324-38.771,12.566c-6.362,2.28-12.635,4.902-18.975,7.343l-9.486,3.718
	l-9.26,4.196c-6.158,2.851-12.544,5.268-18.519,8.507L549.917,441.62z"/>
</svg>
