<svg id="Layer_1" data-name="Layer 1" xmlns="http://www.w3.org/2000/svg" viewBox="0 0 841.89 300.07"><defs><style>.cls-1{fill:#006838;}.cls-2{fill:#f37321;}.cls-3{fill:#fff;}.cls-4{fill:#009444;}</style></defs><title>delisciosa logo</title><path class="cls-1" d="M237.62,130.44q-9.15-16.89-30.42-24.11a77.31,77.31,0,0,0-22.38-3.15,96,96,0,0,0-12.21.81,11.93,11.93,0,0,0-5.39-1.22,11.58,11.58,0,0,0-8.14,3.46,182,182,0,0,0-23.8,7.12,7.4,7.4,0,0,0-5.09,7.43,9.59,9.59,0,0,0,.41,2.74q2,5.19,7.22,5.19a8.41,8.41,0,0,0,2.85-.51c3.93-1.42,11.7-3.76,11.7-3.76s7.15-2.89,25.43-4.17h1.93q14.86,0,25.44,7.53,10.47,7.94,13.78,18.36a65.61,65.61,0,0,1,3.31,19.89A85.87,85.87,0,0,1,215,200a84,84,0,0,1-13.43,21.87q-11.4,12.72-24.62,18.21c-15.81,3.85-23.61.51-23.61.51s-2-1.05-3-1.73a8,8,0,0,0-4.27-1.32,7.55,7.55,0,0,0-6.51,3.56,8.21,8.21,0,0,0-1.32,4.37,7.63,7.63,0,0,0,3.56,6.62,45,45,0,0,0,24.72,7.52,47,47,0,0,0,8.55-.81q17.59-3.15,33.47-15.67a96.31,96.31,0,0,0,26.4-33.42q9.7-20,10.32-31.74t.61-14A68.7,68.7,0,0,0,237.62,130.44Z"/><path class="cls-1" d="M273,252.63q-18.63,0-24.73-20.25A60.9,60.9,0,0,1,246,215.19a85.39,85.39,0,0,1,1-12.82q2.24-13.34,7.53-20.86,8.64-12.3,21.67-12.31a23,23,0,0,1,3.15.21,26.12,26.12,0,0,1,17.09,10,21.48,21.48,0,0,1,4.68,13.33,24.55,24.55,0,0,1-.61,5.39q-3.15,10-11.8,14.15a37.37,37.37,0,0,1-16.38,3.66l-2.23-.1q1.21,12.1,6.1,17.39a6.14,6.14,0,0,0,4.68,2.24,9.08,9.08,0,0,0,3.66-.86,8.77,8.77,0,0,1,3.56-.87,7.56,7.56,0,0,1,7,4.27,8.16,8.16,0,0,1,.82,3.47,7.31,7.31,0,0,1-4.38,6.91Q281.07,252.63,273,252.63Zm-1.63-52.3q6.71,0,10.37-1.83,3-1.53,3-4.27a2.88,2.88,0,0,0-1.22-2.44,4.76,4.76,0,0,0-2.95-.92Q274.65,190.87,271.4,200.33Z"/><path class="cls-1" d="M337.93,253.54q-12.72,0-20.45-8.65-13.11-14.74-13.12-50.25,0-3.36.41-13.74a177.24,177.24,0,0,1,3.36-25.74q7.22-38.76,26.24-54.32,11.5-9.36,23.2-9.36A27.15,27.15,0,0,1,377,99.16q8.08,7.68,9.92,21.31a36.41,36.41,0,0,1,.4,5.5q0,11.7-6.1,26.14A134.92,134.92,0,0,1,358,186.39q-15.12,16.7-31.49,24.32.61,11.6,4.88,19.74,3.46,6.51,9.46,6.51,5.3,0,11.8-5.39,10.89-9.06,23.91-29.81l2.34-3.36a7.29,7.29,0,0,1,6.51-3.46,8.1,8.1,0,0,1,4.28,1.32,7.61,7.61,0,0,1,3.46,6.51,7.35,7.35,0,0,1-1.43,4.28l-2.14,3.15Q374.46,233.9,360.52,245,349.84,253.54,337.93,253.54Zm-11.59-60.22a102.81,102.81,0,0,0,23.19-20.81,129.25,129.25,0,0,0,17.3-26.2q6.3-13.53,6.3-22.28c0-.34-.06-2.09-.2-5.24s-1.87-5.71-5.19-7.68a10,10,0,0,0-5-1.32q-15.87,0-27,29.81A203.36,203.36,0,0,0,326.34,193.32Z"/><path class="cls-1" d="M385.75,258.22a13.49,13.49,0,0,1-6.21-1.78c-2.24-1.19-3.86-3.37-4.88-6.56a81.78,81.78,0,0,1-2-19.94q0-43.14,10.79-48.63a11.16,11.16,0,0,1,5.09-1.22,12.69,12.69,0,0,1,3.86.61,11.61,11.61,0,0,1,6.72,5.9,11.29,11.29,0,0,1,1.22,5.09,13.69,13.69,0,0,1-.61,3.86,77.55,77.55,0,0,0-2.45,14,198.49,198.49,0,0,0-1.32,22,49.62,49.62,0,0,0,1,11.59,11.81,11.81,0,0,1-1.27,9.67q-1.79,3.36-6.46,4.88A12.24,12.24,0,0,1,385.75,258.22Zm6.71-84.84a9.49,9.49,0,0,1-6.86-2.85,9.21,9.21,0,0,1-2.9-6.82,9,9,0,0,1,2.9-6.77,9.84,9.84,0,0,1,13.73,0,9.08,9.08,0,0,1,2.9,6.77,9.25,9.25,0,0,1-2.9,6.82A9.5,9.5,0,0,1,392.46,173.38Z"/><path class="cls-1" d="M432.65,254.15a52.27,52.27,0,0,1-13.13-1.73,7.77,7.77,0,0,1-4.06-4.37,7.13,7.13,0,0,1-.51-2.65,8.75,8.75,0,0,1,.71-3.36,7.36,7.36,0,0,1,7-4.57,8.37,8.37,0,0,1,3.15.61,8.58,8.58,0,0,0,3.16.61q3.66,0,9.3-2.95A52.42,52.42,0,0,0,449.23,228q5.29-4.85,5.6-7.28-.31-.7-14.14-2.14-19-1.92-23.71-3.76a33.13,33.13,0,0,1-10.48-6.71,14.58,14.58,0,0,1-4.78-10.89q0-5.7,5.7-12.51A37.7,37.7,0,0,1,425.12,174a71.65,71.65,0,0,1,20.45-3c.47,0,2.63,0,6.46.15a29.62,29.62,0,0,1,12.16,3.31,7.56,7.56,0,0,1,4.17,6.82,8.13,8.13,0,0,1-.92,3.66,7.12,7.12,0,0,1-6.81,4.27,8.12,8.12,0,0,1-3.67-.91,18.15,18.15,0,0,0-8-1.84,37.49,37.49,0,0,0-5.24.62,29.55,29.55,0,0,0-8.85,3.35,36,36,0,0,0-8,5.5c-1.49,1.42-2.24,2.51-2.24,3.25q0,1.53,5.09,1.53a104.91,104.91,0,0,0,10.48-.71q9.66-.83,13.93-.82a48.42,48.42,0,0,1,8.65.71q16.38,4,16.38,17.81,0,6.62-4.48,13.94-8,12.41-23.19,18.72A47.59,47.59,0,0,1,432.65,254.15Z"/><path class="cls-1" d="M508.64,256.79l-2.13-.09q-13.63-1.84-18.93-12.42a41.62,41.62,0,0,1-4.37-19.23q0-2.64.76-11.08t7.33-20.76q6.56-12.3,16.84-17.6a19.91,19.91,0,0,1,9.35-2.34,27.87,27.87,0,0,1,13.54,4,22.46,22.46,0,0,1,10.07,12.31,17.59,17.59,0,0,1,1,5.9,23.19,23.19,0,0,1-3.05,11,7.32,7.32,0,0,1-6.61,4,7.89,7.89,0,0,1-4-1.12,7.26,7.26,0,0,1-4-6.72,8.2,8.2,0,0,1,1-3.86,10.68,10.68,0,0,0,1.63-4.18,1.2,1.2,0,0,0-.1-.5,2.16,2.16,0,0,0-1.94-1.33q-1.83,0-5.69,3.56T511.09,208q-5.5,9.76-5.5,17.6a11,11,0,0,0,5.9,10.18,9.72,9.72,0,0,0,4,.81q4.17,0,10.73-3.86a53.93,53.93,0,0,0,12.47-10.38,7.64,7.64,0,0,1,5.9-2.55,7.71,7.71,0,0,1,5.59,12.93,94.6,94.6,0,0,1-21.36,18Q518.52,256.79,508.64,256.79Z"/><path class="cls-1" d="M568.46,258.22a13.45,13.45,0,0,1-6.2-1.78c-2.24-1.19-3.87-3.37-4.89-6.56a82.34,82.34,0,0,1-2-19.94q0-43.14,10.79-48.63a11.12,11.12,0,0,1,5.08-1.22,12.71,12.71,0,0,1,3.87.61,11.59,11.59,0,0,1,6.71,5.9,11.16,11.16,0,0,1,1.22,5.09,13.34,13.34,0,0,1-.61,3.86,77.74,77.74,0,0,0-2.44,14,198.49,198.49,0,0,0-1.32,22,49.62,49.62,0,0,0,1,11.59,13.64,13.64,0,0,1,.5,3.56,13.23,13.23,0,0,1-1.78,6.11c-1.18,2.24-3.34,3.87-6.46,4.88A12.13,12.13,0,0,1,568.46,258.22Zm6.72-84.84a9.52,9.52,0,0,1-6.87-2.85,9.25,9.25,0,0,1-2.9-6.82,9.08,9.08,0,0,1,2.9-6.77,9.85,9.85,0,0,1,13.74,0,9.08,9.08,0,0,1,2.9,6.77,9.25,9.25,0,0,1-2.9,6.82A9.53,9.53,0,0,1,575.18,173.38Z"/><path class="cls-1" d="M618.82,257.51a68.22,68.22,0,0,1-8.08-.92q-6.06-.91-14-8.64t-10.23-20a43.14,43.14,0,0,1,.61-16.38,46.59,46.59,0,0,1,10.17-19.63q7.44-8.55,16.59-11.4a19.31,19.31,0,0,1,5.49-.81q6.1,0,13,5.34t10.94,23.86a67.36,67.36,0,0,1,1.32,13.22,66.33,66.33,0,0,1-.51,8.25q-2.74,15.87-11,22.17A23.25,23.25,0,0,1,618.82,257.51Zm-8.34-21.06a10.61,10.61,0,0,0,6.21-2.54,11.32,11.32,0,0,0,4.27-7,37.66,37.66,0,0,0,.31-4.79,41.67,41.67,0,0,0-.92-8.54q-2.65-12.42-8.24-12.41-2.24,0-5.09,2.95c-1.9,2-3.49,5.63-4.78,11a29.71,29.71,0,0,0-.71,6.42,27.74,27.74,0,0,0,.3,4.06q1.74,9,5.9,10.48A9.34,9.34,0,0,0,610.48,236.45Z"/><path class="cls-1" d="M677.12,254.15A52.21,52.21,0,0,1,664,252.42a7.78,7.78,0,0,1-4.07-4.37,7.33,7.33,0,0,1-.51-2.65,8.77,8.77,0,0,1,.72-3.36,7.36,7.36,0,0,1,7-4.57,8.37,8.37,0,0,1,3.15.61,8.57,8.57,0,0,0,3.15.61q3.67,0,9.31-2.95A52.42,52.42,0,0,0,693.7,228q5.29-4.85,5.59-7.28-.3-.7-14.14-2.14-19-1.92-23.7-3.76A33,33,0,0,1,651,208.07a14.58,14.58,0,0,1-4.78-10.89q0-5.7,5.7-12.51A37.7,37.7,0,0,1,669.59,174a71.65,71.65,0,0,1,20.45-3q.71,0,6.46.15a29.62,29.62,0,0,1,12.16,3.31,7.57,7.57,0,0,1,4.16,6.82,8.11,8.11,0,0,1-.91,3.66,7.13,7.13,0,0,1-6.82,4.27,8.11,8.11,0,0,1-3.66-.91,18.16,18.16,0,0,0-8-1.84,37.82,37.82,0,0,0-5.24.62,29.74,29.74,0,0,0-8.85,3.35,36.12,36.12,0,0,0-8,5.5c-1.49,1.42-2.24,2.51-2.24,3.25,0,1,1.69,1.53,5.09,1.53a104.74,104.74,0,0,0,10.47-.71q9.68-.83,13.94-.82a48.42,48.42,0,0,1,8.65.71q16.38,4,16.38,17.81,0,6.62-4.48,13.94-8,12.41-23.19,18.72A47.59,47.59,0,0,1,677.12,254.15Z"/><path class="cls-1" d="M802.05,260.25a12.42,12.42,0,0,1-3.77-.61q-15.56-5.79-18.51-36.21-5,9-7.63,12.82-9.87,14.24-21.26,14.24-11.4-.81-17-8.65-6-8.13-6-20.25a51.56,51.56,0,0,1,4.63-21,41.63,41.63,0,0,1,14.19-17.3q8.35-5.79,19.94-5.8,8.15,0,13.54,3.46,2.94-6.1,10.07-6.81h.3a11.6,11.6,0,0,1,8.09,3.1,11.75,11.75,0,0,1,3.82,8l-.11,5.19q-.51,10.78-.5,19.63,0,25.34,3.66,27.37a11.89,11.89,0,0,1,8,11.08,13.71,13.71,0,0,1-.5,3.57,11.64,11.64,0,0,1-5.8,6.81A11.18,11.18,0,0,1,802.05,260.25Zm-46.7-29.39q2.85,0,9.67-12.83,7.62-14.94,9.87-19.83a5,5,0,0,1-.82-.61,5.25,5.25,0,0,0-3.05-1.33q-4.07,0-8.24,5.7a49.66,49.66,0,0,0-6.21,11.19q-3.35,8.15-3.35,13.43c0,2.17.57,3.56,1.73,4.17Z"/><path class="cls-2" d="M100.81,143.92,114,146.15l-3.1,13.52-13.08-2.59Z"/><path class="cls-2" d="M100.75,140.63c1-4.1,1.88-8.09,2.74-11.81l13.62,2.71c-1,3.77-2,7.83-2.89,11.55Z"/><path class="cls-2" d="M110.9,162.62c-1,4.17-2,8.25-2.88,12.16l-13.51-2.69c1-4.1,2-8.17,2.88-12Z"/><path class="cls-2" d="M125.76,162.91l-12.14-2.24q1.66-7,3.25-13.65l12,2.4Z"/><path class="cls-2" d="M97.85,142.52,94.79,156.4l-11.12-2.13c1.08-4.75,2.12-9.34,3.16-13.88Z"/><path class="cls-2" d="M93.78,174.89l13.72,2.63c-.87,3.71-1.73,7.4-2.61,11.16-3.4-.69-7.36-1.38-11.24-2.39A3.08,3.08,0,0,1,92,183.78C92.37,180.72,93.18,177.71,93.78,174.89Z"/><path class="cls-2" d="M117,144.19c1-4.22,1.9-8.22,2.79-12.06l12.09,2.4c-.93,4-1.88,8.05-2.78,11.92Z"/><path class="cls-2" d="M110.71,175.5l2.9-11.87,11.82,2.48c-.94,3.79-1.93,7.82-2.87,11.67Z"/><path class="cls-2" d="M94.36,159.18c-1,4.08-2,8.06-2.88,11.91L80.6,168.86c1-3.83,2-7.88,2.93-11.8Z"/><path class="cls-2" d="M119.75,118.84l-2.56,9.26-13.33-2.63c.79-3.1,1.61-6.37,2.32-9.2Z"/><path class="cls-2" d="M111,178.53l11.59,2.11c-.9,3.77-1.78,7.41-2.59,10.81l-11.66-2.25Z"/><path class="cls-2" d="M86.62,137.49c.94-4.08,1.88-8.17,2.77-12l11.17,2.22c-1,4-2,8.06-3,12.06Z"/><path class="cls-2" d="M132.12,150.22l8.72,1.88c-1,4.45-2.07,9-3.13,13.65L129.05,164Q130.61,157,132.12,150.22Z"/><path class="cls-2" d="M74.77,137.74l8.78,1.88c-1.08,4.49-2.17,9.09-3.3,13.8l-8.58-2C72.69,147,73.72,142.36,74.77,137.74Z"/><path class="cls-2" d="M137.87,168.35c-1,4.28-1.87,8.27-2.77,12.22l-9.48-2.06c.95-3.89,1.93-7.94,2.89-11.92Z"/><path class="cls-2" d="M86.76,124.57c-1,4.12-2,8.11-2.9,11.85l-9.18-1.88,3-11.79Z"/><path class="cls-2" d="M89.62,122.41c.8-3.42,1.57-6.7,2.31-9.88l11.3,2.31c-.87,3.27-1.77,6.67-2.58,9.74Z"/><path class="cls-2" d="M122.86,192.64c.93-3.78,1.82-7.4,2.73-11.13l9,2C134,191.62,130.27,194.67,122.86,192.64Z"/><path class="cls-2" d="M120.13,128.72l2.44-10.35,10.8,12.92Z"/><path class="cls-2" d="M134.91,134.49c2.88,5,5.78,9.38,7.06,14.75l-10-2.18C132.89,143.24,133.83,139.16,134.91,134.49Z"/><path class="cls-2" d="M77.34,168.18l-7.25-13.93,10.23,2.1C79.4,160,78.43,163.85,77.34,168.18Z"/><path class="cls-2" d="M137.88,181.35c.93-4.07,1.86-8.14,2.78-12.13l5.32,1c-1.12,3.2-2.21,6.27-3.27,9.34C141.81,182.15,140.2,182.71,137.88,181.35Z"/><path class="cls-2" d="M77.53,119.62,89.24,112l-2.63,9.3Z"/><path class="cls-2" d="M79.84,171.77l11.64,2.09c-.78,3-1.52,5.78-2.36,8.94Z"/><path class="cls-2" d="M144.07,152.83c.76,5.24,1.43,9.87,2.13,14.65l-5.54-.95C141.75,162.14,142.81,157.88,144.07,152.83Z"/><path class="cls-2" d="M71.3,134.37l-2.61-.57c.52-4.9,3.29-10.63,5.51-11.71C73.28,126,72.33,130.05,71.3,134.37Z"/><path class="cls-2" d="M106.74,194.5c.24-1,.41-1.71.45-1.91L119.83,195C115.58,196.56,111.38,195.81,106.74,194.5Z"/><path class="cls-2" d="M68.54,149.19c-.3-4.64-.57-8.73-.87-13.32L71.46,137C70.55,140.78,69.63,144.64,68.54,149.19Z"/><path class="cls-2" d="M106,112.55l1.1-2.8,10.42,4.78-.18.38Z"/><path class="cls-2" d="M93,109l11.57,0-.5,3.08L93,109.83Z"/><path class="cls-2" d="M98.4,190l6.95,1.27c-.27.85-.48,1.49-.78,2.45l-6.32-3.43Z"/><path class="cls-1" d="M112.05,66c-13.25,9.11-20.6,21.88-24,37.25a4.55,4.55,0,0,1-1.7,2.56c-4.62,3.16-9.32,6.19-14,9.21a3.22,3.22,0,0,1-2.22.65c-9.75-3-18.87-.27-27.86,3.12-4.17,1.58-8.19,3.57-12.77,5.6,6.7-12.2,16.16-19.43,30.35-20.32C52.16,94.74,42,90,31.77,85.27c13.21-1.35,25.69,0,36.38,9.23-3.56-13.19-1.91-27,4.16-35.72-.31,11.48,2.39,21.61,8,29.36C87.05,75.17,96.91,66.69,112.05,66Z"/><path class="cls-3" d="M85.54,180.7s13.07-.84,19.11-5.79,24.4-21.71,40.78-12.72l4.73,5.32-3.29,4.09L130,185.71,88,196Z"/><path class="cls-1" d="M84.48,213.08c-1.2-.11-2.39-.23-3.59-.31a38,38,0,0,1-7.82-.86,13.07,13.07,0,0,1-8.14-6.1,17.19,17.19,0,0,1-2.26-4.71c-.8-3.57.42-6.53,2.78-9.11,2-2.17,4.63-3.29,7.33-4.27a60.29,60.29,0,0,1,11.65-2.56c3.66-.57,7.32-1.17,10.95-1.92a21.8,21.8,0,0,0,8.65-3.82c2.21-1.63,4.38-3.33,6.46-5.13a38.19,38.19,0,0,1,7.23-5A41.23,41.23,0,0,1,131,165a26.35,26.35,0,0,1,7.73.19A40.81,40.81,0,0,1,148.6,168a17.79,17.79,0,0,1,8.49,7.27,28.53,28.53,0,0,1,4.46,12.28,24.7,24.7,0,0,1-1.8,11.08,38.27,38.27,0,0,1-9.48,14.21c-.59.55-1.24,1.05-1.84,1.59a.81.81,0,0,0-.3.54,25,25,0,0,1-1.94,12.35,35.06,35.06,0,0,1-8.73,12.82,37.55,37.55,0,0,1-7.37,5,38.18,38.18,0,0,1-8.47,3.49,39.16,39.16,0,0,1-18.75.79,63.63,63.63,0,0,1-9.52-3.07,67.5,67.5,0,0,0-9.35-3,47.72,47.72,0,0,0-11.62-1,16.15,16.15,0,0,1-7.17-1.17,12.16,12.16,0,0,1-6-5.59,24.73,24.73,0,0,1-1.6-3.22,11.29,11.29,0,0,1,.09-6.78A9.25,9.25,0,0,1,62.22,220a21.12,21.12,0,0,1,6.18-2.25,125.06,125.06,0,0,0,13.49-3.42c.88-.3,1.74-.65,2.61-1Zm30.07-13.3,0,.11a1,1,0,0,0,.3.05,14.73,14.73,0,0,1,6.41,1.48,16.49,16.49,0,0,1,9.27,10.52,5.93,5.93,0,0,1-1.25,6.11,13,13,0,0,1-2.16,2c-1.89,1.33-3.81,2.63-5.79,3.81a24.71,24.71,0,0,1-8.06,3,18.28,18.28,0,0,1-6.87.27,13.85,13.85,0,0,1-8.26-4.72,6.74,6.74,0,0,1-1.58-5.62,21.4,21.4,0,0,1,3-7.56,19.13,19.13,0,0,1,4.57-5c.21-.17.43-.32.65-.48-1.47.67-2.89,1.41-4.28,2.2-1.87,1.06-3.7,2.19-5.58,3.22-2.68,1.48-5.33,3-8.1,4.31A66.72,66.72,0,0,1,72.55,218c-3.22.71-6.48,1.2-9.43,2.82a8.52,8.52,0,0,0-3.45,3.06,10.45,10.45,0,0,0-1.22,7.37,7.09,7.09,0,0,0,3.62,5.08,7.67,7.67,0,0,0,3.92.93c2.51,0,5-.22,7.55-.24a142.64,142.64,0,0,1,20.53,1.83c3,.42,6,.82,9.05,1.15a50.52,50.52,0,0,0,8.87.17A31.8,31.8,0,0,0,125.76,236a45.75,45.75,0,0,0,7.84-5.58,39.08,39.08,0,0,0,7.88-9.31c1.48-2.56,2.85-5.16,3.1-8.18a9.06,9.06,0,0,0-2-6.65,16.94,16.94,0,0,0-6.46-4.7,34.4,34.4,0,0,0-14.67-2.89,28,28,0,0,0-6.24.89Zm13-28.19c.35-.33.91-.78,1.37-1.3a1.36,1.36,0,0,0-.69-2.41,7,7,0,0,0-3.76.05,10.86,10.86,0,0,0-5.41,2.7c-.51.51-1,1.07-.72,1.87s1.07.92,1.8,1.05h.13C122.86,173.78,125.15,172.9,127.56,171.59Zm3.51-3.81a2.72,2.72,0,0,0-.5.9c0,.17.33.56.58.63a5.18,5.18,0,0,0,4.56-.76c.72-.52.59-1.15-.25-1.42A5.81,5.81,0,0,0,131.07,167.78Z"/><path class="cls-3" d="M114.55,199.78l.62-.2a28,28,0,0,1,6.24-.89,34.4,34.4,0,0,1,14.67,2.89,16.94,16.94,0,0,1,6.46,4.7,9.06,9.06,0,0,1,2,6.65c-.25,3-1.62,5.62-3.1,8.18a39.08,39.08,0,0,1-7.88,9.31,45.75,45.75,0,0,1-7.84,5.58A31.8,31.8,0,0,1,112,240.14a50.52,50.52,0,0,1-8.87-.17c-3-.33-6-.73-9.05-1.15A142.64,142.64,0,0,0,73.54,237c-2.52,0-5,.22-7.55.24a7.67,7.67,0,0,1-3.92-.93,7.09,7.09,0,0,1-3.62-5.08,10.45,10.45,0,0,1,1.22-7.37,8.52,8.52,0,0,1,3.45-3.06c2.95-1.62,6.21-2.11,9.43-2.82a66.72,66.72,0,0,0,14.29-4.45c2.77-1.3,5.42-2.83,8.1-4.31,1.88-1,3.71-2.16,5.58-3.22,1.39-.79,2.81-1.53,4.28-2.2-.22.16-.44.31-.65.48a19.13,19.13,0,0,0-4.57,5,21.4,21.4,0,0,0-3,7.56,6.74,6.74,0,0,0,1.58,5.62,13.85,13.85,0,0,0,8.26,4.72,18.28,18.28,0,0,0,6.87-.27,24.71,24.71,0,0,0,8.06-3c2-1.18,3.9-2.48,5.79-3.81a13,13,0,0,0,2.16-2,5.93,5.93,0,0,0,1.25-6.11,16.49,16.49,0,0,0-9.27-10.52,14.73,14.73,0,0,0-6.41-1.48,1,1,0,0,1-.3-.05Z"/><path class="cls-3" d="M127.56,171.59c-2.41,1.31-4.7,2.19-7.28,2h-.13c-.73-.13-1.49-.27-1.8-1.05s.21-1.36.72-1.87a10.86,10.86,0,0,1,5.41-2.7,7,7,0,0,1,3.76-.05,1.36,1.36,0,0,1,.69,2.41C128.47,170.81,127.91,171.26,127.56,171.59Z"/><path class="cls-3" d="M131.07,167.78a5.81,5.81,0,0,1,4.39-.65c.84.27,1,.9.25,1.42a5.18,5.18,0,0,1-4.56.76c-.25-.07-.61-.46-.58-.63A2.72,2.72,0,0,1,131.07,167.78Z"/><path class="cls-1" d="M176.87,205c4.51-18-8.15-34-25.33-35,2.75-10.08,15-19.24,28.14-17.08.16,1.84.32,3.72.5,5.75l2.71.21c0-1.81-.08-3.5-.12-5.21,9.72,1.79,20.21,12.48,19.52,26.42A26.22,26.22,0,0,1,176.87,205Zm-.74-47.68-1.88-1c0,.8-.19,1.75.15,2.38,2.56,4.66,11.31,5.72,14.77,1.8a5.92,5.92,0,0,0,.73-2.11,5.86,5.86,0,0,0-1.94.82C184.91,162.26,178.06,161.4,176.13,157.34Z"/><path class="cls-1" d="M170.37,138.86l8.59,9.9c-9.12,1.61-18.19-6.49-19.49-16.73,10.16-2.56,18.83,5,20.34,14.14C175.45,141.4,173,139.55,170.37,138.86Z"/><path class="cls-1" d="M189.2,140.72c-4.76,2.78-6.29,7.31-6.59,12.36l-2.66-.6a25.3,25.3,0,0,1,4.47-14.12,1.6,1.6,0,0,1,1.37-.53A4.15,4.15,0,0,1,189.2,140.72Z"/><circle class="cls-3" cx="150.84" cy="197.3" r="27.1"/><path class="cls-1" d="M170.8,183.88a24.39,24.39,0,1,1-33.7-6.94A24.35,24.35,0,0,1,170.8,183.88Zm-1.8,1.43a22.1,22.1,0,1,0-6.59,30.59A22,22,0,0,0,169,185.31Z"/><path class="cls-2" d="M152.31,193.88l-2.28-.66c-.52-4.48-1.09-8.92-1.49-13.38a2.21,2.21,0,0,1,1.24-1.68A10.4,10.4,0,0,1,158.7,180a1.4,1.4,0,0,1,.37,2.13C156.79,186,154.6,189.87,152.31,193.88Z"/><path class="cls-2" d="M153.52,199.26l.59-2.3c4.5-.53,9-1.1,13.48-1.52a2,2,0,0,1,1.56,1.15,10.29,10.29,0,0,1-1.8,9c-.61.85-1.2.88-2.09.36C161.4,203.73,157.51,201.54,153.52,199.26Z"/><path class="cls-2" d="M149.26,193.29l-2,1.32-11.32-9c.19-3.13,5.65-6.59,8.34-6.48a1.73,1.73,0,0,1,1.34.89C146.88,184.46,148.06,188.9,149.26,193.29Z"/><path class="cls-2" d="M153.26,199.68l11.43,9.07c-.16,3.13-5.74,6.61-8.34,6.48a1.89,1.89,0,0,1-1.39-1.07c-1.17-4-2.14-8-3.35-12C151.12,200.53,152.31,200.38,153.26,199.68Z"/><path class="cls-2" d="M146.36,198.32l1.28,2c-2.84,3.59-5.66,7.21-8.57,10.74a1.87,1.87,0,0,1-1.77.29,10.24,10.24,0,0,1-5.18-7.84,1.88,1.88,0,0,1,1-1.5C137.5,200.68,141.93,199.52,146.36,198.32Z"/><path class="cls-2" d="M150.65,200.56c.59,5.15,1.14,9.72,1.6,14.29a1.61,1.61,0,0,1-.76,1.25c-2.45,1.17-7.69.19-9.57-1.83a1.94,1.94,0,0,1-.28-1.78c2-3.65,4-7.29,6.24-10.81C148.27,201.05,149.54,201,150.65,200.56Z"/><path class="cls-2" d="M154,196.25l-1.31-2c2.85-3.61,5.71-7.27,8.65-10.86a1.68,1.68,0,0,1,1.49-.17c2.42.92,5.39,5.31,5.31,7.94a2,2,0,0,1-1,1.49C162.81,193.92,158.43,195.06,154,196.25Z"/><path class="cls-2" d="M146.69,195.3c-.15.82-.27,1.51-.42,2.33-4.54.53-9.08,1.1-13.64,1.54a1.85,1.85,0,0,1-1.43-1,10.15,10.15,0,0,1,1.78-9.22c.61-.83,1.25-.8,2.13-.28C138.91,190.88,142.75,193,146.69,195.3Z"/><path class="cls-4" d="M241.13,116.26A209.18,209.18,0,0,1,273,99.73c5.58-2.17,11.1-4.55,16.79-6.43l8.5-3,8.59-2.65a526.53,526.53,0,0,1,70.21-15.56c23.69-3.76,47.6-6,71.54-7.39q18-1,35.94-1.15c12-.24,24,0,36,.26,47.91,1.71,95.89,6.92,142.52,18.69,23.24,6,46.26,13.48,67.76,24.48,10.63,5.63,21,12.06,29.81,20.38a59.45,59.45,0,0,1,11.25,14.16,33.77,33.77,0,0,1,4.44,17.28,33.27,33.27,0,0,0-5.5-16.67A58.41,58.41,0,0,0,759.14,129c-9-7.66-19.43-13.43-30.12-18.4A269.08,269.08,0,0,0,695.86,98q-17-5.3-34.33-9.25c-11.58-2.58-23.24-4.79-34.94-6.79s-23.47-3.54-35.28-4.87Q555.93,73,520.25,72c-23.75-.79-47.54-.57-71.28.43s-47.45,3-71,6a596.53,596.53,0,0,0-70,13.12l-8.64,2.19-8.56,2.51c-5.74,1.57-11.31,3.65-17,5.51-2.79,1-5.54,2.15-8.32,3.22l-4.16,1.63-4.06,1.84c-2.7,1.25-5.5,2.31-8.12,3.73Z"/></svg>