<?xml version="1.0" encoding="iso-8859-1"?>
<!-- Generator: Adobe Illustrator 19.0.0, SVG Export Plug-In . SVG Version: 6.00 Build 0)  -->
<svg xmlns="http://www.w3.org/2000/svg" xmlns:xlink="http://www.w3.org/1999/xlink" version="1.1" id="Layer_1" x="0px" y="0px" viewBox="0 0 512 512" style="enable-background:new 0 0 512 512;" xml:space="preserve">
<path style="fill:#30D8B8;" d="M437.845,502.747H74.155V64.94h280.801c45.779,0,82.89,37.111,82.89,82.89v354.917H437.845z"/>
<rect x="74.155" y="464.499" style="fill:#00C6A5;" width="363.687" height="38.245"/>
<rect x="132.284" y="245.666" style="fill:#EFEFEF;" width="252.709" height="143.527"/>
<path style="fill:#E0E0E3;" d="M336.064,293.688c5.878,12.124,8.849,25.148,8.849,38.685v56.818H167.088v-56.818  c0-13.538,2.972-26.56,8.836-38.672c1.255-2.588,2.642-5.112,4.121-7.555c-9.06-11.662-15.519-25.451-18.451-40.481h188.814  c-2.932,15.03-9.391,28.818-18.464,40.494C333.435,288.59,334.822,291.1,336.064,293.688z"/>
<path style="fill:#FF9900;" d="M318.502,389.188H193.498v-56.814c0-34.518,27.982-62.502,62.502-62.502l0,0  c34.518,0,62.502,27.982,62.502,62.502V389.188z"/>
<path style="fill:#FF8800;" d="M312.291,305.193C296.455,316.67,277,323.432,256,323.432c-21,0-40.454-6.763-56.291-18.24  c10.104-20.907,31.513-35.317,56.291-35.317c17.262,0,32.887,6.987,44.192,18.306C305.119,293.107,309.226,298.852,312.291,305.193z  "/>
<polygon style="fill:#C7C5CC;" points="285.168,112.271 226.832,112.271 213.624,9.253 298.376,9.253 "/>
<path style="fill:#FFDAA7;" d="M325.771,227.24c0,38.536-31.234,69.771-69.771,69.771s-69.771-31.234-69.771-69.771  c0-3.448,0.258-6.822,0.738-10.123c4.905-33.742,33.946-59.648,69.033-59.648c10.897,0,21.223,2.508,30.423,6.952  c20.743,10.068,35.77,30.129,38.776,53.932C325.586,221.267,325.771,224.235,325.771,227.24z"/>
<path style="fill:#A07852;" d="M325.199,218.353c-72.648,6.067-94.313-23.675-94.313-23.675  c-11.063,16.594-43.92,22.439-43.92,22.439c4.905-33.742,33.946-59.648,69.033-59.648c10.897,0,21.223,2.508,30.423,6.952  C307.167,174.489,322.193,194.55,325.199,218.353z"/>
<path d="M437.846,439.62c-5.111,0-9.253,4.143-9.253,9.253v44.621H83.408V198.015c0-5.111-4.143-9.253-9.253-9.253  c-5.111,0-9.253,4.143-9.253,9.253v304.732c0,5.111,4.143,9.253,9.253,9.253h363.69c5.111,0,9.253-4.143,9.253-9.253v-53.874  C447.098,443.763,442.955,439.62,437.846,439.62z"/>
<path d="M354.955,55.688h-53.204l5.802-45.258c0.339-2.637-0.474-5.292-2.231-7.289S301.035,0,298.376,0h-84.752  c-2.659,0-5.19,1.144-6.946,3.14s-2.569,4.652-2.231,7.289l5.802,45.258H74.154c-5.111,0-9.253,4.143-9.253,9.253v97.296  c0,5.111,4.143,9.253,9.253,9.253c5.111,0,9.253-4.143,9.253-9.253V74.192H212.62l3.696,28.826h-7.204  c-5.111,0-9.253,4.143-9.253,9.253c0,5.111,4.143,9.253,9.253,9.253h17.058c0.107,0,0.21-0.013,0.317-0.016  c0.115,0.004,0.229,0.016,0.345,0.016h58.337c0.203,0,0.402-0.015,0.602-0.028c0.184,0.01,0.366,0.028,0.553,0.028h17.058  c5.111,0,9.253-4.143,9.253-9.253c0-5.111-4.143-9.253-9.253-9.253h-7.698l3.696-28.826h55.577  c40.604,0,73.637,33.033,73.637,73.637v265.804c0,5.111,4.143,9.253,9.253,9.253c5.11,0,9.253-4.143,9.253-9.253V147.83  C447.098,97.022,405.763,55.688,354.955,55.688z M234.975,103.019L224.14,18.506h63.722l-10.835,84.512H234.975z"/>
<path d="M123.037,389.187c0,5.111,4.143,9.253,9.253,9.253h61.209h125.002h66.492c5.111,0,9.253-4.143,9.253-9.253v-58.353  c0-5.111-4.143-9.253-9.253-9.253c-5.11,0-9.253,4.143-9.253,9.253v49.1h-47.986v-47.561c0-18.138-6.788-34.703-17.928-47.348  c8.872-8.27,15.846-18.545,20.183-30.106h45.731v41.734c0,5.111,4.143,9.253,9.253,9.253c5.11,0,9.253-4.143,9.253-9.253v-50.987  c0-5.111-4.143-9.253-9.253-9.253h-50.519c0.35-3.011,0.55-6.069,0.55-9.173c0-3.446-0.219-6.845-0.645-10.047  c-3.351-26.537-19.768-49.378-43.932-61.105c-10.817-5.224-22.406-7.873-34.447-7.873c-8.526,0-16.796,1.39-24.572,3.965  c-4.443,1.471-8.726,3.33-12.802,5.537c-1.019,0.552-2.025,1.125-3.019,1.72c-19.856,11.896-34.299,32.272-37.798,56.348v0.002  c-0.554,3.809-0.834,7.662-0.834,11.452c0,3.104,0.2,6.161,0.55,9.173h-45.236c-5.111,0-9.253,4.143-9.253,9.253L123.037,389.187  L123.037,389.187z M309.248,332.374v47.561h-13.672v-21.123c0-5.111-4.143-9.253-9.253-9.253s-9.253,4.143-9.253,9.253v21.123  h-41.645v-21.123c0-5.111-4.143-9.253-9.253-9.253c-5.111,0-9.253,4.143-9.253,9.253v21.123h-14.168v-47.561  c0-14.051,5.489-26.828,14.413-36.351c11.478,6.507,24.724,10.241,38.835,10.241c14.114,0,27.365-3.738,38.845-10.247  C303.769,305.54,309.248,318.324,309.248,332.374z M256,287.759c-33.37,0-60.518-27.149-60.518-60.518  c0-0.843,0.024-1.693,0.06-2.543c9.122-2.31,24.865-7.393,35.845-16.873c10.803,8.389,33.636,20.591,75.094,20.591  c3.22,0,6.563-0.079,10.013-0.234C315.989,261.117,289.054,287.759,256,287.759z M259.445,166.817  c7.998,0.443,15.702,2.434,22.939,5.929c15.142,7.349,26.726,20.896,31.549,37.023c-55.874,2.056-74.594-19.379-75.611-20.602  c-1.726-2.49-4.483-3.861-7.516-3.861c-0.017,0-0.033,0-0.049,0c-3.077,0.015-5.862,1.68-7.568,4.241  c-4.266,6.399-14.119,11.219-23.004,14.368c0.097-0.231,0.191-0.463,0.29-0.693c10.868-24.926,35.855-37.685,62.269-36.222  C261.725,166.943,260.114,166.855,259.445,166.817C267.443,167.26,258.302,166.754,259.445,166.817z M141.543,254.92h40.448  c4.337,11.56,11.311,21.835,20.183,30.106c-11.141,12.645-17.928,29.211-17.928,47.349v47.561h-42.703L141.543,254.92  L141.543,254.92z"/>
<path d="M369.144,416.034H154.302c-5.111,0-9.253,4.143-9.253,9.253c0,5.11,4.143,9.253,9.253,9.253h214.841  c5.111,0,9.253-4.143,9.253-9.253C378.396,420.177,374.254,416.034,369.144,416.034z"/>
<path d="M369.144,447.293H154.302c-5.111,0-9.253,4.143-9.253,9.253s4.143,9.253,9.253,9.253h214.841  c5.111,0,9.253-4.143,9.253-9.253S374.254,447.293,369.144,447.293z"/>
<path d="M256,29.055c-5.111,0-9.253,4.143-9.253,9.253v11.226c0,5.111,4.143,9.253,9.253,9.253c5.11,0,9.253-4.143,9.253-9.253  V38.308C265.253,33.198,261.111,29.055,256,29.055z"/>
<path d="M132.289,124.165h11.244c5.111,0,9.253-4.143,9.253-9.253c0-5.111-4.143-9.253-9.253-9.253h-11.244  c-5.111,0-9.253,4.143-9.253,9.253C123.037,120.022,127.18,124.165,132.289,124.165z"/>
<path d="M132.289,151.779h11.244c5.111,0,9.253-4.143,9.253-9.253c0-5.11-4.143-9.253-9.253-9.253h-11.244  c-5.111,0-9.253,4.143-9.253,9.253C123.037,147.636,127.18,151.779,132.289,151.779z"/>
<path d="M132.289,179.391h11.244c5.111,0,9.253-4.143,9.253-9.253c0-5.11-4.143-9.253-9.253-9.253h-11.244  c-5.111,0-9.253,4.143-9.253,9.253C123.037,175.248,127.18,179.391,132.289,179.391z"/>
<g>
</g>
<g>
</g>
<g>
</g>
<g>
</g>
<g>
</g>
<g>
</g>
<g>
</g>
<g>
</g>
<g>
</g>
<g>
</g>
<g>
</g>
<g>
</g>
<g>
</g>
<g>
</g>
<g>
</g>
</svg>
