<?xml version="1.0" encoding="utf-8"?>
<!-- Generator: Adobe Illustrator 16.0.0, SVG Export Plug-In . SVG Version: 6.00 Build 0)  -->
<!DOCTYPE svg PUBLIC "-//W3C//DTD SVG 1.1//EN" "http://www.w3.org/Graphics/SVG/1.1/DTD/svg11.dtd" [
	<!ENTITY ns_extend "http://ns.adobe.com/Extensibility/1.0/">
	<!ENTITY ns_ai "http://ns.adobe.com/AdobeIllustrator/10.0/">
	<!ENTITY ns_graphs "http://ns.adobe.com/Graphs/1.0/">
	<!ENTITY ns_vars "http://ns.adobe.com/Variables/1.0/">
	<!ENTITY ns_imrep "http://ns.adobe.com/ImageReplacement/1.0/">
	<!ENTITY ns_sfw "http://ns.adobe.com/SaveForWeb/1.0/">
	<!ENTITY ns_custom "http://ns.adobe.com/GenericCustomNamespace/1.0/">
	<!ENTITY ns_adobe_xpath "http://ns.adobe.com/XPath/1.0/">
]>
<svg version="1.1" id="Layer_1" xmlns:x="&ns_extend;" xmlns:i="&ns_ai;" xmlns:graph="&ns_graphs;"
	 xmlns="http://www.w3.org/2000/svg" xmlns:xlink="http://www.w3.org/1999/xlink" x="0px" y="0px" width="1080px" height="1080px"
	 viewBox="420 0 1080 1080" enable-background="new 420 0 1080 1080" xml:space="preserve">
<metadata>
	<sfw  xmlns="&ns_sfw;">
		<slices></slices>
		<sliceSourceBounds  width="1079.999" height="1016.897" x="419.5" y="32.05" bottomLeftOrigin="true"></sliceSourceBounds>
	</sfw>
</metadata>
<path fill="#333E48" d="M1169.561,1030.777c0-202.104-163.839-365.943-365.941-365.943c-202.108,0-365.946,163.84-365.946,365.943
	H1169.561z"/>
<g>
	<polygon fill="#FFFFFF" points="882.783,754.141 803.616,905.388 724.451,754.141 	"/>
	<polygon fill="#FFFFFF" points="923.638,684.995 929.042,756.554 803.616,805.369 678.189,756.554 683.595,684.995 	"/>
</g>
<path fill="#8E572A" d="M803.616,664.834c-42.044,0-82.418,7.113-120.021,20.164L803.616,805.02l120.021-120.021
	C886.035,671.947,845.662,664.834,803.616,664.834z"/>
<path opacity="0.1" enable-background="new    " d="M803.616,664.834c-53.867,0-105.011,11.644-151.063,32.544
	c45.74,21.901,96.964,34.176,151.063,34.176c54.097,0,105.321-12.273,151.059-34.176
	C908.625,676.479,857.48,664.834,803.616,664.834z"/>
<circle fill="#8E572A" cx="803.613" cy="381.35" r="332.128"/>
<path fill="#5E3719" d="M1012.33,385.135c22.819,0,41.314,18.499,41.314,41.314c0,22.82-18.497,41.315-41.314,41.315h-46.961
	c-22.819,0-41.314-18.497-41.314-41.315c0-22.817,18.498-41.314,41.314-41.314H1012.33z"/>
<path fill="#333E48" d="M803.616,49.222c-183.436,0-332.133,148.701-332.133,332.129c0,38.249,6.483,74.979,18.384,109.174
	c140.875-49.068,252.134-161.348,299.793-302.879c68.116,53.306,153.892,85.088,247.093,85.088c26.718,0,52.812-2.635,78.068-7.613
	C1067.699,139.019,946.153,49.222,803.616,49.222z"/>
<path fill="#8E572A" d="M614.683,357.468c-36.378,0-65.866,29.489-65.866,65.868c0,36.378,29.488,65.869,65.866,65.869V357.468z"/>
<path fill="#E0E0D3" d="M1110.65,743.854v250.724c0,19.91,16.293,36.201,36.203,36.201h217.216c19.91,0,36.203-16.288,36.203-36.201
	V743.854H1110.65z"/>
<ellipse fill="#C29178" cx="1255.468" cy="881.794" rx="57.793" ry="83.974"/>
<path fill="#1E252B" d="M1326.766,709.909c9.761,0,17.672-7.912,17.672-17.672c0-9.762-7.911-17.673-17.672-17.673
	c-15.093,0-27.371-12.278-27.371-27.371c0-15.094,12.278-27.371,27.371-27.371c34.58,0,62.717-28.135,62.717-62.719
	c0-34.581-28.137-62.717-62.717-62.717c-9.761,0-17.673,7.912-17.673,17.674c0,9.76,7.912,17.672,17.673,17.672
	c15.093,0,27.371,12.278,27.371,27.371c0,15.095-12.279,27.373-27.371,27.373c-34.582,0-62.717,28.136-62.717,62.717
	S1292.184,709.909,1326.766,709.909z M1200.082,584.476c-34.581,0-62.716,28.136-62.716,62.717s28.135,62.716,62.716,62.716
	c9.76,0,17.673-7.912,17.673-17.672c0-9.762-7.913-17.673-17.673-17.673c-15.093,0-27.371-12.278-27.371-27.371
	s12.278-27.371,27.371-27.371c34.581,0,62.716-28.136,62.716-62.719c0-34.581-28.135-62.717-62.716-62.717
	c-9.76,0-17.672,7.912-17.672,17.673s7.912,17.673,17.672,17.673c15.093,0,27.371,12.277,27.371,27.37
	C1227.453,572.196,1215.175,584.476,1200.082,584.476z M853.434,364.26c13.889,0,25.147-11.257,25.147-25.146
	c0-13.891-11.258-25.148-25.147-25.148c-13.887,0-25.149,11.256-25.149,25.148C828.285,353.003,839.547,364.26,853.434,364.26z
	 M1417.945,789.298v-45.444c0-9.76-7.912-17.672-17.674-17.672H1110.65c-9.761,0-17.672,7.912-17.672,17.672v35.146
	c-33.291-38.123-74.007-69.602-119.234-92.094c107.095-59.868,179.679-174.382,179.679-305.55
	c0-192.881-156.921-349.802-349.803-349.802c-192.884,0-349.805,156.921-349.805,349.802c0,131.16,72.574,245.673,179.663,305.544
	c-57.084,28.215-106.184,70.108-143.407,122.81C444.229,874.609,420,951.054,420,1030.777c0,9.761,7.912,17.673,17.672,17.673
	h926.395c29.705,0,53.875-24.167,53.875-53.874v-9.015c46.588-8.368,82.058-49.171,82.058-98.132
	C1500.002,838.468,1464.533,797.668,1417.945,789.298z M512.781,500.889c14.43-5.63,28.631-11.956,42.481-18.898
	c15.156,15.354,36.191,24.891,59.417,24.891c9.762,0,17.674-7.913,17.674-17.673s-7.912-17.672-17.674-17.672
	c-26.572,0-48.193-21.621-48.193-48.197s21.617-48.195,48.193-48.195c9.762,0,17.673-7.911,17.673-17.673
	c0-9.76-7.911-17.672-17.673-17.672c-46.063,0-83.54,37.476-83.54,83.54c0,10.065,1.791,19.724,5.069,28.666
	c-11.467,5.639-23.178,10.821-35.059,15.493c-7.812-27.386-11.995-56.284-11.995-86.143c0-173.394,141.063-314.458,314.46-314.458
	c127.065,0,236.767,75.759,286.315,184.48c-17.604,2.447-35.421,3.687-53.18,3.687c-86.533,0-168.208-28.126-236.202-81.333
	c-4.516-3.535-10.465-4.662-15.961-3.012c-5.493,1.646-9.848,5.854-11.678,11.29c-29.441,87.432-83.785,163.638-157.153,220.375
	c-7.723,5.972-9.14,17.071-3.168,24.792c3.481,4.503,8.709,6.863,13.991,6.863c3.774,0,7.581-1.206,10.8-3.691
	c72.515-56.074,127.751-129.847,160.807-214.438c70.182,48.826,152.16,74.505,238.564,74.505c22.146,0,44.377-1.778,66.251-5.255
	c9.769,30.335,15.072,62.657,15.072,96.2c0,173.396-141.065,314.46-314.458,314.46C672.521,695.814,559.924,615.167,512.781,500.889
	z M910.438,744.83l-35.43,13.789l33.917-33.917L910.438,744.83z M803.616,780.025l-52.857-52.854
	c17.242,2.624,34.895,3.988,52.857,3.988c17.966,0,35.614-1.364,52.855-3.988L803.616,780.025z M844.542,789.085l-40.929,78.192
	l-40.931-78.198l28.436,28.434c3.448,3.449,7.974,5.178,12.495,5.178c4.522,0,9.046-1.727,12.496-5.178L844.542,789.085z
	 M732.227,758.619l-35.434-13.791l1.512-20.13L732.227,758.619z M455.783,1013.104c3.282-65.976,24.95-128.91,63.154-183.004
	c36.957-52.326,86.793-92.914,144.896-118.354l-3.266,43.487c-0.582,7.752,3.97,14.975,11.214,17.793l53.506,20.822l62.67,119.737
	c3.05,5.828,9.081,9.479,15.658,9.479s12.608-3.649,15.657-9.479l62.67-119.737l53.507-20.822
	c7.243-2.818,11.796-10.041,11.213-17.793l-3.263-43.455c60.27,26.519,112.717,70.35,149.575,125.246v157.554
	c0,6.508,1.16,12.747,3.284,18.529L455.783,1013.104L455.783,1013.104z M1382.599,994.576c0,10.218-8.313,18.529-18.53,18.529
	h-217.217c-10.22,0-18.529-8.313-18.529-18.529v-233.05h254.275L1382.599,994.576L1382.599,994.576z M1417.945,949.33V825.531
	c26.933,7.703,46.712,32.525,46.712,61.898S1444.878,941.629,1417.945,949.33z M1062.466,364.26
	c13.887,0,25.148-11.257,25.148-25.146c0-13.891-11.259-25.148-25.148-25.148s-25.149,11.256-25.149,25.148
	C1037.318,353.003,1048.578,364.26,1062.466,364.26z"/>
</svg>
