<?xml version="1.0" encoding="iso-8859-1"?>
<!-- Generator: Adobe Illustrator 19.0.0, SVG Export Plug-In . SVG Version: 6.00 Build 0)  -->
<svg version="1.1" id="Layer_1" xmlns="http://www.w3.org/2000/svg" xmlns:xlink="http://www.w3.org/1999/xlink" x="0px" y="0px"
	 viewBox="0 0 512 512" style="enable-background:new 0 0 512 512;" xml:space="preserve">
<path style="fill:#333E48;" d="M348.864,95.378h73.555c18.599,0,32.657,15.172,31.243,33.716L430.313,435.19
	c-1.413,18.545-17.787,33.716-36.385,33.716h-45.064L348.864,95.378L348.864,95.378z"/>
<path style="opacity:0.2;enable-background:new    ;" d="M423.727,95.412c-0.433-0.019-0.869-0.033-1.308-0.033h-73.555v373.527
	h45.064c0.439,0,0.875-0.016,1.312-0.033c0.331-1.631,0.574-3.292,0.703-4.977l27.726-363.507
	C423.799,98.703,423.806,97.042,423.727,95.412z"/>
<path style="fill:#333E48;" d="M395.369,100.388c1.681-22.022-15.015-40.039-37.101-40.039H95.457
	c-22.085,0-38.781,18.018-37.101,40.039l27.726,363.507c1.679,22.02,21.124,40.039,43.211,40.039h195.139
	c22.085,0,41.531-18.019,43.21-40.039L395.369,100.388z"/>
<g>
	<polygon style="fill:#5C6670;" points="62.459,154.171 71.648,274.646 382.078,274.646 391.267,154.171 	"/>
	<path style="fill:#5C6670;" d="M248.542,328.765h-43.474c-4.455,0-8.065-3.611-8.065-8.065c0-4.455,3.61-8.065,8.065-8.065h43.474
		c4.455,0,8.065,3.61,8.065,8.065C256.607,325.155,252.996,328.765,248.542,328.765z"/>
	<path style="fill:#5C6670;" d="M173.283,328.765h-43.473c-4.454,0-8.065-3.611-8.065-8.065c0-4.455,3.611-8.065,8.065-8.065h43.473
		c4.455,0,8.065,3.61,8.065,8.065C181.348,325.155,177.738,328.765,173.283,328.765z"/>
	<path style="fill:#5C6670;" d="M323.154,328.765h-43.473c-4.455,0-8.065-3.611-8.065-8.065c0-4.455,3.61-8.065,8.065-8.065h43.473
		c4.455,0,8.065,3.61,8.065,8.065C331.219,325.155,327.609,328.765,323.154,328.765z"/>
	<path style="fill:#5C6670;" d="M248.542,369.168h-43.474c-4.455,0-8.065-3.61-8.065-8.065s3.61-8.065,8.065-8.065h43.474
		c4.455,0,8.065,3.61,8.065,8.065C256.607,365.557,252.996,369.168,248.542,369.168z"/>
	<path style="fill:#5C6670;" d="M173.283,369.168h-43.473c-4.454,0-8.065-3.61-8.065-8.065s3.611-8.065,8.065-8.065h43.473
		c4.455,0,8.065,3.61,8.065,8.065C181.348,365.557,177.738,369.168,173.283,369.168z"/>
	<path style="fill:#5C6670;" d="M323.154,369.168h-43.473c-4.455,0-8.065-3.61-8.065-8.065s3.61-8.065,8.065-8.065h43.473
		c4.455,0,8.065,3.61,8.065,8.065C331.219,365.557,327.609,369.168,323.154,369.168z"/>
	<path style="fill:#5C6670;" d="M248.542,409.57h-43.474c-4.455,0-8.065-3.61-8.065-8.065c0-4.455,3.61-8.065,8.065-8.065h43.474
		c4.455,0,8.065,3.61,8.065,8.065C256.607,405.96,252.996,409.57,248.542,409.57z"/>
	<path style="fill:#5C6670;" d="M173.283,409.57h-43.473c-4.454,0-8.065-3.61-8.065-8.065c0-4.455,3.611-8.065,8.065-8.065h43.473
		c4.455,0,8.065,3.61,8.065,8.065C181.348,405.96,177.738,409.57,173.283,409.57z"/>
	<path style="fill:#5C6670;" d="M323.154,409.57h-43.473c-4.455,0-8.065-3.61-8.065-8.065c0-4.455,3.61-8.065,8.065-8.065h43.473
		c4.455,0,8.065,3.61,8.065,8.065C331.219,405.96,327.609,409.57,323.154,409.57z"/>
	<path style="fill:#5C6670;" d="M248.542,449.973h-43.474c-4.455,0-8.065-3.61-8.065-8.065s3.61-8.065,8.065-8.065h43.474
		c4.455,0,8.065,3.61,8.065,8.065S252.996,449.973,248.542,449.973z"/>
</g>
<path style="fill:#FFC843;" d="M173.283,449.973h-43.473c-4.454,0-8.065-3.61-8.065-8.065s3.611-8.065,8.065-8.065h43.473
	c4.455,0,8.065,3.61,8.065,8.065S177.738,449.973,173.283,449.973z"/>
<path style="fill:#0082CA;" d="M323.154,449.973h-43.473c-4.455,0-8.065-3.61-8.065-8.065s3.61-8.065,8.065-8.065h43.473
	c4.455,0,8.065,3.61,8.065,8.065S327.609,449.973,323.154,449.973z"/>
<path style="fill:#FFFFFF;" d="M333.928,194.54c0-9.466-7.745-17.21-17.21-17.21H137.015c-9.465,0-17.21,7.743-17.21,17.21v35.265
	c0,9.465,7.745,17.21,17.21,17.21h179.703c9.465,0,17.21-7.745,17.21-17.21V194.54z"/>
<g>
	<path style="fill:#333E48;" d="M295.069,234.119c-4.455,0-8.065-3.61-8.065-8.065v-27.762c0-4.455,3.61-8.065,8.065-8.065
		s8.065,3.61,8.065,8.065v27.762C303.134,230.508,299.524,234.119,295.069,234.119z"/>
	<path style="fill:#333E48;" d="M261.376,234.119c-4.455,0-8.065-3.61-8.065-8.065v-27.762c0-4.455,3.61-8.065,8.065-8.065
		s8.065,3.61,8.065,8.065v27.762C269.441,230.508,265.831,234.119,261.376,234.119z"/>
</g>
<path style="fill:#E0E0D3;" d="M325.026,124.029V25.275c0-9.465-7.745-17.21-17.21-17.21H145.91c-9.465,0-17.21,7.745-17.21,17.21
	v98.754H325.026z"/>
<g>
	<path style="fill:#5C6670;" d="M241.781,94.262H163.02c-4.455,0-8.065-3.61-8.065-8.065c0-4.455,3.61-8.065,8.065-8.065h78.76
		c4.455,0,8.065,3.61,8.065,8.065C249.846,90.652,246.235,94.262,241.781,94.262z"/>
	<path style="fill:#5C6670;" d="M276.2,54.105H163.02c-4.455,0-8.065-3.61-8.065-8.065s3.61-8.065,8.065-8.065H276.2
		c4.455,0,8.065,3.61,8.065,8.065S280.656,54.105,276.2,54.105z"/>
</g>
<path style="fill:#1E252B;" d="M451.462,99.801c-7.463-8.052-17.776-12.487-29.043-12.487h-19.952
	c-1.697-7.706-5.364-14.796-10.821-20.684c-8.572-9.251-20.425-14.345-33.378-14.345h-25.177v-27.01
	C333.091,11.338,321.753,0,307.816,0H145.91c-13.936,0-25.275,11.338-25.275,25.275v27.009H95.457
	c-12.952,0-24.807,5.094-33.378,14.345c-8.573,9.251-12.749,21.458-11.764,34.373l27.726,363.507
	C80.038,490.697,103.03,512,129.294,512h195.139c21.938,0,41.583-14.87,48.626-35.029h20.87c22.767,0,42.696-18.468,44.427-41.167
	l23.349-306.096C462.56,118.474,458.922,107.853,451.462,99.801z M136.765,25.275c0-5.043,4.101-9.145,9.145-9.145h161.906
	c5.043,0,9.145,4.101,9.145,9.145v90.689H136.765V25.275z M66.398,99.775c-0.641-8.387,2.028-16.264,7.512-22.183
	c5.484-5.919,13.136-9.178,21.546-9.178h25.178v55.615c0,4.455,3.61,8.065,8.065,8.065h196.325c4.455,0,8.065-3.61,8.065-8.065
	V68.414h25.177c8.41,0,16.063,3.259,21.548,9.178s8.152,13.797,7.511,22.183l-3.534,46.331H69.932L66.398,99.775z M359.6,463.282
	c-1.346,17.664-17.452,32.588-35.168,32.588H129.294c-18.023,0-33.799-14.619-35.169-32.588L80.351,282.711h293.021L359.6,463.282z
	 M79.122,266.581l-7.959-104.345h311.4l-7.959,104.345H79.122z M445.619,128.48l-23.349,306.096
	c-1.085,14.236-14.064,26.264-28.343,26.264h-17.963l27.261-357.397h19.195c6.724,0,12.836,2.6,17.211,7.321
	C444.003,115.486,446.131,121.776,445.619,128.48z M316.718,169.265H137.015c-13.936,0-25.275,11.338-25.275,25.275v35.265
	c0,13.936,11.338,25.275,25.275,25.275h179.703c13.936,0,25.275-11.338,25.275-25.275V194.54
	C341.993,180.603,330.654,169.265,316.718,169.265z M325.863,229.804c0,5.042-4.102,9.145-9.145,9.145H137.015
	c-5.042,0-9.145-4.101-9.145-9.145V194.54c0-5.042,4.101-9.145,9.145-9.145h179.703c5.042,0,9.145,4.101,9.145,9.145V229.804z"/>
<g>
</g>
<g>
</g>
<g>
</g>
<g>
</g>
<g>
</g>
<g>
</g>
<g>
</g>
<g>
</g>
<g>
</g>
<g>
</g>
<g>
</g>
<g>
</g>
<g>
</g>
<g>
</g>
<g>
</g>
</svg>
