<?xml version="1.0" encoding="iso-8859-1"?>
<!-- Generator: Adobe Illustrator 19.0.0, SVG Export Plug-In . SVG Version: 6.00 Build 0)  -->
<svg xmlns="http://www.w3.org/2000/svg" xmlns:xlink="http://www.w3.org/1999/xlink" version="1.1" id="Layer_1" x="0px" y="0px" viewBox="0 0 511.998 511.998" style="enable-background:new 0 0 511.998 511.998;" xml:space="preserve">
<g>
	<path style="fill:#7C5B46;" d="M273.193,54.364V24.839c0-9.495-7.698-17.192-17.193-17.192c-9.495,0-17.193,7.697-17.193,17.192   v29.526H273.193z"/>
	<path style="fill:#7C5B46;" d="M238.805,349.565V487.16c0,9.497,7.698,17.194,17.193,17.194s17.193-7.697,17.193-17.194V349.565   H238.805z"/>
</g>
<g>
	<path style="fill:#634535;" d="M255.999,24.839c0-6.359,3.462-11.9,8.597-14.873c-2.531-1.466-5.461-2.319-8.597-2.319   c-9.495,0-17.193,7.697-17.193,17.192v29.526h17.193V24.839z"/>
	<path style="fill:#634535;" d="M255.999,487.16V349.565h-17.193V487.16c0,9.497,7.698,17.194,17.193,17.194   c3.135,0,6.065-0.854,8.597-2.319C259.462,499.061,255.999,493.521,255.999,487.16z"/>
</g>
<g>
	<path style="fill:#7C5B46;" d="M352.29,493.214c2.595,6.891,9.14,11.141,16.094,11.141c2.011,0,4.058-0.356,6.053-1.107   c8.887-3.345,13.38-13.26,10.033-22.148l-54.299-131.533H293.43L352.29,493.214z"/>
	<path style="fill:#7C5B46;" d="M159.708,493.214c-2.595,6.891-9.14,11.141-16.094,11.141c-2.011,0-4.058-0.356-6.053-1.107   c-8.887-3.345-13.38-13.26-10.033-22.148l54.299-131.533h36.741L159.708,493.214z"/>
</g>
<g>
	<path style="fill:#634535;" d="M371.483,493.214l-58.859-143.648h-19.192l58.859,143.648c2.595,6.891,9.14,11.141,16.094,11.141   c2.011,0,4.058-0.356,6.053-1.107c1.273-0.479,2.444-1.107,3.528-1.833C375.105,499.487,372.791,496.686,371.483,493.214z"/>
	<path style="fill:#634535;" d="M146.719,481.098l54.298-131.533h-19.191l-54.299,131.533c-3.347,8.889,1.146,18.803,10.033,22.148   c1.995,0.751,4.042,1.107,6.053,1.107c3.448,0,6.794-1.047,9.612-2.941C146.75,497.067,143.851,488.714,146.719,481.098z"/>
</g>
<path style="fill:#6B6968;" d="M409.755,60.772c-7.178,0-205.35,0-212.461,0c-16.02,0-84.88,0-95.05,0  c-14.626,0-26.528,11.901-26.528,26.528v238.737c0,14.624,11.901,26.526,26.528,26.526h307.512  c14.626,0,26.527-11.901,26.527-26.526V87.3C436.281,72.672,424.381,60.772,409.755,60.772z"/>
<path style="fill:#4F4D4D;" d="M105.191,326.038V87.3c0-14.628,11.901-26.528,26.528-26.528h-29.476  c-14.626,0-26.528,11.901-26.528,26.528v238.737c0,14.624,11.901,26.526,26.528,26.526h29.476  C117.093,352.563,105.191,340.662,105.191,326.038z"/>
<path style="fill:#F4CC7A;" d="M406.807,311.096c0,6.625-5.37,11.994-11.993,11.994H117.185c-6.623,0-11.993-5.368-11.993-11.994  V102.239c0-6.623,5.37-11.993,11.993-11.993h277.628c6.623,0,11.993,5.37,11.993,11.993L406.807,311.096L406.807,311.096z"/>
<path style="fill:#DDDDDD;" d="M314.946,89.68c0,6.51-5.278,11.789-11.79,11.789h-94.315c-6.511,0-11.79-5.278-11.79-11.789V63.154  c0-6.509,5.278-11.789,11.79-11.789h94.315c6.511,0,11.79,5.279,11.79,11.789V89.68z"/>
<path style="fill:#C7C9C8;" d="M303.156,77.417h-94.315c-6.511,0-11.79-5.279-11.79-11.789V89.68c0,6.51,5.278,11.789,11.79,11.789  h94.315c6.511,0,11.79-5.278,11.79-11.789V65.628C314.946,72.138,309.668,77.417,303.156,77.417z"/>
<path style="fill:#F7C781;" d="M394.813,90.246h-79.896c-0.296,6.246-5.441,11.223-11.761,11.223h-94.315  c-6.32,0-11.466-4.976-11.761-11.223h-79.896c-6.623,0-11.993,5.37-11.993,11.993v208.857c0,6.625,5.37,11.994,11.993,11.994  h231.594l58.027-58.03V102.24C406.807,95.617,401.436,90.246,394.813,90.246z"/>
<path style="fill:#FCD28D;" d="M394.813,90.246h-79.896c-0.296,6.246-5.441,11.223-11.761,11.223h-94.315  c-6.32,0-11.466-4.976-11.761-11.223h-29.533c-6.368,19.402-9.827,40.124-9.827,61.657c0,73.169,39.779,137.043,98.887,171.186  h92.171l58.027-58.03V102.24C406.807,95.617,401.436,90.246,394.813,90.246z"/>
<path style="fill:#EFB962;" d="M406.807,265.059h-46.37c-6.437,0-11.658,5.219-11.658,11.658v45.487  c0,0.284,0.023,0.563,0.043,0.843L406.807,265.059z"/>
<path d="M436.386,119.87c4.143,0,7.5-3.357,7.5-7.5V87.2c0-18.772-15.272-34.043-34.043-34.043h-90.117  c-3.375-5.626-9.517-9.413-16.542-9.413h-22.481V24.702C280.703,11.082,269.62,0,255.999,0c-13.622,0-24.703,11.082-24.703,24.702  v19.042h-22.481c-7.025,0-13.168,3.786-16.542,9.413h-90.117c-18.772,0-34.043,15.272-34.043,34.043v238.877  c0,18.771,15.272,34.042,34.043,34.042h68.316l-8.361,19.791c-1.611,3.816,0.175,8.216,3.99,9.829  c3.814,1.61,8.215-0.175,9.829-3.99l10.827-25.63h20.52c-0.079,0.19-54.571,130.395-54.643,130.588  c-1.417,3.763-5.067,6.29-9.085,6.29c-1.161,0-2.31-0.211-3.415-0.628c-2.426-0.913-4.351-2.715-5.42-5.075  c-1.052-2.321-1.152-4.909-0.286-7.302l31.813-75.304c1.611-3.816-0.175-8.216-3.99-9.829c-3.815-1.611-8.215,0.175-9.829,3.99  c-0.089,0.211-31.907,75.521-31.987,75.735c-2.326,6.176-2.106,12.889,0.616,18.899c2.723,6.009,7.623,10.6,13.798,12.924  c2.8,1.055,5.728,1.59,8.702,1.59c10.177,0,19.428-6.369,23.07-15.866l56.918-136.013h7.758v127.175  c0,13.622,11.082,24.704,24.703,24.704c13.622,0,24.703-11.083,24.703-24.704V360.121h7.758l56.918,136.013  c7.85,20.467,36.563,21.229,45.57,1.353c2.926-6.461,2.806-13.633,0.507-19.175l-49.93-118.191h68.317  c18.772,0,34.043-15.272,34.043-34.042v-188.7c0-4.143-3.357-7.5-7.5-7.5c-4.143,0-7.5,3.357-7.5,7.5v188.699  c0,10.5-8.543,19.041-19.042,19.041c-4.882,0-302.606,0-307.691,0c-10.5,0-19.042-8.542-19.042-19.041V87.2  c0-10.5,8.543-19.042,19.042-19.042h87.363v14.49h-84.414c-4.143,0-7.5,3.357-7.5,7.5v232.98c0,4.143,3.357,7.5,7.5,7.5  c3.143,0,298.654,0,301.791,0c4.143,0,7.5-3.357,7.5-7.5v-58.065V90.149c0-4.143-3.357-7.5-7.5-7.5H322.48V68.158h87.363  c10.5,0,19.042,8.543,19.042,19.042v25.17C428.886,116.513,432.244,119.87,436.386,119.87z M325.242,360.121l52.33,123.872  c0.866,2.393,0.766,4.98-0.286,7.302c-3.574,7.889-14.885,7.471-17.92-0.587c-0.031-0.084-0.065-0.168-0.1-0.252l-54.543-130.336  L325.242,360.121L325.242,360.121z M265.702,360.121v127.175c0,5.351-4.353,9.704-9.703,9.704s-9.703-4.353-9.703-9.704V360.121  H265.702z M246.296,24.702c0-5.35,4.353-9.702,9.703-9.702c5.349,0,9.703,4.352,9.703,9.702v19.042h-19.405L246.296,24.702  L246.296,24.702z M208.814,58.746h29.982c10.171,0,56.949,0,64.389,0c2.368,0,4.295,1.927,4.295,4.295v26.448  c0-0.005,0-0.008-0.001-0.008c0,2.512-1.979,4.397-4.294,4.397c-100.233,0-95.575,0.509-97.358-1.219  c-0.519-0.507-0.967-1.227-1.17-2.049c-0.071-0.293-0.105-0.58-0.122-0.889l-0.017-26.682  C204.518,60.673,206.446,58.746,208.814,58.746z M356.334,305.019v-32.455h32.454L356.334,305.019z M366.94,315.628l32.455-32.456  v32.456H366.94z M399.394,97.65v159.914h-50.562c-4.143,0-7.5,3.357-7.5,7.5v50.565H112.604V97.65h78.683  c3.022,6.591,9.775,11.23,17.527,11.23c100.737,0,95.367,0.151,98.024-0.357c1.289-0.248,2.355-0.543,3.761-1.128  c4.651-1.943,8.199-5.568,10.114-9.745H399.394z"/>
<g>
</g>
<g>
</g>
<g>
</g>
<g>
</g>
<g>
</g>
<g>
</g>
<g>
</g>
<g>
</g>
<g>
</g>
<g>
</g>
<g>
</g>
<g>
</g>
<g>
</g>
<g>
</g>
<g>
</g>
</svg>
