<?xml version="1.0" encoding="utf-8"?>
<!-- Generator: Adobe Illustrator 16.0.0, SVG Export Plug-In . SVG Version: 6.00 Build 0)  -->
<!DOCTYPE svg PUBLIC "-//W3C//DTD SVG 1.1//EN" "http://www.w3.org/Graphics/SVG/1.1/DTD/svg11.dtd" [
	<!ENTITY ns_extend "http://ns.adobe.com/Extensibility/1.0/">
	<!ENTITY ns_ai "http://ns.adobe.com/AdobeIllustrator/10.0/">
	<!ENTITY ns_graphs "http://ns.adobe.com/Graphs/1.0/">
	<!ENTITY ns_vars "http://ns.adobe.com/Variables/1.0/">
	<!ENTITY ns_imrep "http://ns.adobe.com/ImageReplacement/1.0/">
	<!ENTITY ns_sfw "http://ns.adobe.com/SaveForWeb/1.0/">
	<!ENTITY ns_custom "http://ns.adobe.com/GenericCustomNamespace/1.0/">
	<!ENTITY ns_adobe_xpath "http://ns.adobe.com/XPath/1.0/">
]>
<svg version="1.1" id="Layer_1" xmlns:x="&ns_extend;" xmlns:i="&ns_ai;" xmlns:graph="&ns_graphs;"
	 xmlns="http://www.w3.org/2000/svg" xmlns:xlink="http://www.w3.org/1999/xlink" x="0px" y="0px" width="1080px" height="1080px"
	 viewBox="420 0 1080 1080" enable-background="new 420 0 1080 1080" xml:space="preserve">
<metadata>
	<sfw  xmlns="&ns_sfw;">
		<slices></slices>
		<sliceSourceBounds  width="656.356" height="809.23" x="631.893" y="134.261" bottomLeftOrigin="true"></sliceSourceBounds>
	</sfw>
</metadata>
<g id="Master_Layer_2">
</g>
<g id="Layer_1_1_">
	<g>
		<g>
			<g>
				<g>
					<g>
						<path fill="#212121" d="M962.217,831.104c-0.421,0-0.843,0-1.264-0.053c-7.271-0.685-12.645-7.164-11.959-14.487
							c3.951-41.198,15.699-76.443,34.771-104.786c26.763-39.67,68.066-66.381,122.698-79.394
							c7.112-1.686,14.277,2.687,15.963,9.852c1.686,7.112-2.687,14.277-9.852,15.963c-25.656,6.111-48.047,15.542-66.539,28.133
							c-16.068,10.905-29.66,24.498-40.354,40.303c-16.858,24.972-26.763,55.212-30.398,92.511
							C974.756,825.941,968.961,831.104,962.217,831.104z"/>
					</g>
					<g>
						<path fill="#212121" d="M1009.263,886.263c-7.271,0-13.171-5.848-13.276-13.118c0-0.263,0-1.527,0-2.739
							c0-0.843,0-1.633,0-1.844c-0.421-45.834,7.429-86.295,23.971-123.594c16.859-37.932,43.148-73.704,80.395-109.317
							c5.321-5.058,13.697-4.899,18.755,0.422c5.058,5.32,4.899,13.697-0.421,18.755c-34.719,33.19-59.11,66.222-74.494,100.94
							c-14.962,33.77-22.074,70.595-21.705,112.583c0,0.211,0,1.106,0,2.055c0,1.054,0,2.16,0,2.477
							c0.105,7.322-5.795,13.328-13.118,13.434C1009.368,886.263,1009.315,886.263,1009.263,886.263z"/>
					</g>
				</g>
				<g>
					<path fill="#212121" d="M1214.355,946.216c-2.002,0-4.004-0.421-5.9-1.369c-79.656-39.513-167.058-60.849-252.825-61.64
						c-88.244-0.843-171.747,20.336-241.552,61.218c-6.322,3.688-14.435,1.581-18.176-4.741c-3.688-6.322-1.58-14.436,4.742-18.176
						c37.563-22.021,78.866-38.722,122.751-49.627c42.304-10.537,86.874-15.647,132.497-15.226
						c89.771,0.843,181.177,23.128,264.363,64.378c6.586,3.267,9.22,11.222,6.006,17.808
						C1223.943,943.529,1219.255,946.216,1214.355,946.216z"/>
				</g>
				<g>
					<path fill="#212121" d="M962.164,756.452c-5.848,0-11.168-3.846-12.802-9.746c-1.738-6.27-3.425-12.539-5.163-19.177
						c-10.589-39.564-22.548-84.346-44.833-124.7c-25.235-45.624-59.9-78.498-106.051-100.52c-6.638-3.161-9.43-11.063-6.269-17.701
						c3.16-6.638,11.063-9.431,17.701-6.27c51.26,24.498,89.824,61.007,117.852,111.636c23.865,43.199,36.299,89.666,47.257,130.706
						c1.738,6.585,3.424,12.854,5.11,19.019c1.949,7.06-2.213,14.383-9.272,16.332C964.535,756.294,963.323,756.452,962.164,756.452
						z"/>
				</g>
				<g>
					<path fill="#212121" d="M962.164,756.452c-1.105,0-2.213-0.158-3.318-0.421c-7.112-1.845-11.38-9.062-9.536-16.174
						c1.054-4.109,2.107-8.324,3.214-12.592c21.179-83.555,50.154-198.035,167.163-256.405c6.532-3.267,14.54-0.632,17.807,5.953
						c3.267,6.532,0.632,14.54-5.953,17.807c-46.888,23.392-82.291,58.688-108.211,107.947
						c-22.759,43.253-34.612,89.982-45.044,131.233c-1.106,4.268-2.16,8.534-3.213,12.644
						C973.491,752.448,968.117,756.452,962.164,756.452z"/>
				</g>
				<g>
					<path fill="#212121" d="M962.164,883.26c-7.322,0-13.275-5.953-13.275-13.275V355.379c0-7.322,5.953-13.275,13.275-13.275
						c7.323,0,13.276,5.953,13.276,13.275v514.555C975.44,877.307,969.487,883.26,962.164,883.26z"/>
				</g>
				<g>
					<path fill="#212121" d="M1109.147,593.926c-23.443,0-49.838-7.218-81.553-18.387c-4.899-1.738-8.377-6.164-8.798-11.327
						c-3.108-34.718,0-65.537,9.219-91.563c8.588-24.234,22.496-44.518,41.356-60.375c13.539-11.379,29.66-20.44,47.941-26.974
						c16.437-5.848,34.665-9.693,54.211-11.432c33.928-2.95,72.07,0.632,107.42,10.167c4.847,1.317,8.535,5.216,9.536,10.115
						s-0.843,9.957-4.742,13.065c-34.507,27.29-48.204,58.531-54.052,71.912c-0.896,2.107-1.634,3.741-2.318,5.11
						c-0.264,0.527-2.002,4.215-3.161,6.639c-1.212,2.528-2.318,4.847-2.581,5.373c-26.763,54.475-51.208,82.238-81.869,92.774
						C1129.904,592.397,1119.842,593.926,1109.147,593.926L1109.147,593.926z M1044.559,553.307
						c36.772,12.434,64.378,18.229,86.452,10.643c23.392-8.061,43.358-31.821,66.696-79.394c0.264-0.527,1.317-2.739,2.424-5.11
						c1.896-3.951,3.056-6.375,3.372-7.06c0.368-0.737,1.001-2.213,1.738-3.898c4.952-11.327,16.595-37.879,42.252-64.326
						c-25.024-4.53-50.523-5.9-73.757-3.846c-35.771,3.108-66.012,14.277-87.4,32.242
						C1055.411,458.583,1041.345,499.151,1044.559,553.307z"/>
				</g>
				<g>
					<path fill="#212121" d="M811.913,593.662c-10.695,0-20.811-1.528-30.504-4.847c-30.661-10.537-55.159-38.301-81.869-92.827
						c-0.264-0.527-1.159-2.371-2.581-5.427c-1.159-2.424-2.898-6.006-3.161-6.585c-0.686-1.37-1.423-3.003-2.318-5.11
						c-5.848-13.329-19.598-44.623-54.053-71.912c-3.951-3.108-5.795-8.166-4.741-13.065c1.001-4.899,4.688-8.851,9.535-10.115
						c64.379-17.386,153.255-19.071,209.573,28.186c18.86,15.805,32.769,36.14,41.355,60.374c9.22,26.025,12.328,56.845,9.22,91.563
						c-0.474,5.162-3.898,9.588-8.798,11.326C861.751,586.444,835.356,593.662,811.913,593.662L811.913,593.662z M673.515,403.953
						c25.656,26.446,37.3,52.999,42.252,64.325c0.737,1.687,1.369,3.108,1.738,3.899c0.316,0.685,1.476,3.107,3.372,7.007
						c1.158,2.423,2.212,4.636,2.476,5.109c23.392,47.626,43.306,71.386,66.696,79.446c22.021,7.586,49.681,1.791,86.453-10.642
						c3.214-54.158-10.853-94.777-41.777-120.75c-21.39-17.965-51.629-29.133-87.401-32.241
						C724.037,398.053,698.539,399.422,673.515,403.953L673.515,403.953z M889.093,562.737L889.093,562.737L889.093,562.737z"/>
				</g>
				<g>
					<path fill="#212121" d="M962.164,461.009c-1.896,0-3.793-0.422-5.531-1.212c-31.873-14.698-55.686-32.979-70.753-54.422
						c-16.174-23.075-22.021-49.048-17.333-77.285c4.373-26.289,18.07-54.158,40.618-82.871
						c13.856-17.596,24.498-36.931,31.558-57.319c5.32-15.278,8.113-28.238,8.166-37.51c0-0.053,0-0.105,0-0.158
						c0-7.323,5.953-13.223,13.275-13.223l0,0c7.323,0,13.276,5.953,13.276,13.276c0,0.053,0,0.105,0,0.158
						c0,8.693,2.424,20.547,6.954,34.297c7.112,21.6,18.176,41.936,32.77,60.533c17.49,22.232,29.713,44.096,36.298,64.906
						c6.638,20.968,7.692,41.197,3.161,60.058c-4.531,18.809-14.594,36.141-29.924,51.524c-14.436,14.487-33.611,27.29-56.95,38.09
						C965.957,460.638,964.061,461.009,962.164,461.009L962.164,461.009z M962.111,206.445
						c-7.902,19.545-18.649,38.089-32.084,55.159c-19.809,25.183-31.662,48.995-35.297,70.806
						c-3.53,21.073,0.79,40.514,12.854,57.636c11.485,16.384,29.818,30.767,54.579,42.937c17.965-8.798,32.611-18.913,43.728-30.029
						c11.801-11.906,19.545-25.024,22.917-39.038c7.164-29.713-4.426-64.115-34.508-102.363l0,0
						C980.814,244.534,970.066,225.99,962.111,206.445z"/>
				</g>
				<g>
					<g>
						<path fill="#212121" d="M962.164,831.104c-6.743,0-12.538-5.109-13.17-12.012c-3.583-37.246-13.54-67.539-30.398-92.511
							c-10.643-15.805-24.234-29.397-40.355-40.303c-18.491-12.538-40.882-22.021-66.538-28.133
							c-7.112-1.686-11.538-8.851-9.852-15.963c1.686-7.112,8.851-11.537,15.963-9.852c54.737,13.065,96.041,39.775,122.804,79.446
							c19.124,28.343,30.819,63.588,34.771,104.786c0.685,7.271-4.636,13.803-11.959,14.487
							C963.008,831.051,962.586,831.104,962.164,831.104z"/>
					</g>
					<g>
						<path fill="#212121" d="M915.118,884.366c-0.052,0-0.104,0-0.157,0c-7.323-0.105-13.171-6.111-13.118-13.434
							c0-0.264,0-0.844,0-1.423v-1.106c0.368-41.988-6.691-78.813-21.706-112.583c-15.383-34.771-39.775-67.751-74.493-100.94
							c-5.321-5.058-5.479-13.487-0.422-18.756c5.058-5.32,13.487-5.479,18.755-0.421c37.247,35.613,63.589,71.385,80.395,109.316
							c16.543,37.3,24.393,77.708,23.971,123.595v1.001c0,0.632,0,1.316,0,1.633C928.289,878.519,922.336,884.366,915.118,884.366z"
							/>
					</g>
				</g>
			</g>
		</g>
	</g>
</g>
</svg>
